<?xml version="1.0" standalone="no"?>
<!DOCTYPE svg PUBLIC "-//W3C//DTD SVG 1.1//EN" "http://www.w3.org/Graphics/SVG/1.1/DTD/svg11.dtd" >
<svg xmlns="http://www.w3.org/2000/svg" xmlns:xlink="http://www.w3.org/1999/xlink" version="1.1">
<metadata>
Created by FontForge 20170910 at Thu Apr 23 10:17:16 2015
 By Jimmy Wärting
Ketchum (c) (Neale Davidson). 2011-2015. All Rights Reserved
</metadata>
<defs>
<font id="Ketchum-Italic" horiz-adv-x="1600" >
  <font-face 
    font-family="Ketchum"
    font-weight="400"
    font-style="italic"
    font-stretch="normal"
    units-per-em="2048"
    panose-1="2 0 5 0 0 0 0 0 0 0"
    ascent="1638"
    descent="-410"
    x-height="805"
    cap-height="1288"
    bbox="-461 -601 2292 1713"
    underline-thickness="150"
    underline-position="-292"
    unicode-range="U+001D-F002"
  />
<missing-glyph 
d="M0 200v1100q0 200 200 200h1100q200 0 200 -200v-1100q0 -200 -200 -200h-1100q-200 0 -200 200zM1475 201v1099q0 175 -175 175h-1100q-174 0 -175 -175v-1100q1 -175 175 -175h1101q174 0 174 176z" />
    <glyph glyph-name=".notdef" 
d="M0 200v1100q0 200 200 200h1100q200 0 200 -200v-1100q0 -200 -200 -200h-1100q-200 0 -200 200zM1475 201v1099q0 175 -175 175h-1100q-174 0 -175 -175v-1100q1 -175 175 -175h1101q174 0 174 176z" />
    <glyph glyph-name=".null" horiz-adv-x="100" 
 />
    <glyph glyph-name=".null" horiz-adv-x="100" 
 />
    <glyph glyph-name="nonmarkingreturn" horiz-adv-x="100" 
 />
    <glyph glyph-name="space" unicode=" " horiz-adv-x="1100" 
 />
    <glyph glyph-name="space" unicode="&#xa0;" horiz-adv-x="1100" 
 />
    <glyph glyph-name="exclam" unicode="!" horiz-adv-x="502" 
d="M215 290q105 0 156 -57q29 -31 29 -62q0 -10 -3 -19q-18 -67 -95 -129q-32 -26 -55 -29q-44 -5 -66 -5q-155 0 -155 111q0 11 1 22q18 68 67 114q51 48 121 54zM143 482l96 765l531 125l-335 -867z" />
    <glyph glyph-name="quotedbl" unicode="&#x22;" horiz-adv-x="888" 
d="M452 775l-173 21l-15 442l335 -41zM962 775l-173 21l-15 442l335 -41z" />
    <glyph glyph-name="numbersign" unicode="#" horiz-adv-x="1067" 
d="M667 890l-44 -90h156l45 90h-157zM1204 1293l-78 -193h136l-112 -215l-93 11l-48 -102l97 6l-90 -210h-95l-61 -102l-214 -11l38 118h-177l-62 -130l-205 -28l71 164l-179 -6l75 199l198 6l31 85l-175 11l77 209h217l56 188l225 -5l-83 -183h156l112 188h183z" />
    <glyph glyph-name="dollar" unicode="$" horiz-adv-x="1190" 
d="M536 -57q-6 -5 -13 -31q-15 -56 -25 -139l-304 34l64 170q-107 22 -255 65q-44 13 -143 43q32 38 140 195q81 117 86 117q39 -32 156 -79t171 -51q2 -1 168 -36q23 -5 55 -5q39 0 62 12q43 23 50 49q1 5 1 10q0 53 -139 122q-256 128 -378 323q-47 76 -47 153q0 33 9 67
q73 274 526 274l60 148l280 -23l-55 -161q128 -27 380 -100q-17 -21 -124 -170q-98 -137 -103 -141q-25 26 -201 96q-75 29 -125 33q-34 4 -111 24q-69 17 -112 17q-38 0 -62 -12q-40 -20 -47 -47q-2 -6 -2 -13q0 -44 74 -100t183 -106q192 -90 261 -221q37 -72 37 -148
q0 -41 -11 -84q-17 -64 -57 -114q-140 -171 -449 -171z" />
    <glyph glyph-name="percent" unicode="%" horiz-adv-x="1317" 
d="M519 908h-3q-31 0 -57 -18q-46 -34 -64 -102q-4 -15 -4 -27q0 -33 26 -53q18 -15 49 -15q67 7 99 47q19 24 27 54l1 3q5 20 5 37q0 23 -10 41q-19 32 -69 33zM950 363h-3q-31 0 -57 -18q-46 -34 -64 -102q-4 -15 -4 -27q0 -33 26 -53q18 -15 49 -15q67 7 99 47
q19 24 27 54l1 3q5 20 5 37q0 23 -10 41q-19 32 -69 33zM427 419q-21 -3 -41 -3q-203 0 -241 157q-8 35 -8 76q0 60 17 132l3 9q15 56 47 122q74 148 225 213q85 36 192 37h4q173 0 223 -119q20 -49 20 -110q0 -32 -5 -67l323 331l359 17l-602 -608q51 10 109 11h4
q173 0 223 -119q20 -49 20 -111t-20 -137l-6 -21q-17 -63 -92 -154q-71 -86 -158 -140q-106 -64 -206 -64q-203 0 -241 157q-8 35 -8 76q0 60 17 132l3 11l-469 -474l-332 -11z" />
    <glyph glyph-name="ampersand" unicode="&#x26;" horiz-adv-x="1271" 
d="M346 17q-335 30 -378 244q-4 20 -4 40q0 28 8 58q27 101 150 220q100 98 199 141q60 27 84 28q-101 139 -101 227q0 17 4 33q6 23 21 41q137 169 433 169l41 126h340l-83 -160q103 -22 282 -73l118 -34q-17 -21 -124 -170q-97 -136 -103 -141q-16 28 -61 73
q-50 28 -235 59q-178 29 -275 29q-55 0 -60 -20q-2 -6 -2 -13q0 -34 45 -84q100 -115 219 -115q10 0 31 3l-48 -204q-168 15 -313 73q-32 -5 -93 -50q-63 -46 -71 -75q-4 -17 -4 -33q0 -69 85 -115q68 -37 224 -37q168 0 414 49l-3 -215l-453 -63l-61 -130h-279z" />
    <glyph glyph-name="quotesingle" unicode="'" horiz-adv-x="462" 
d="M536 775l-173 21l-15 442l335 -41z" />
    <glyph glyph-name="parenleft" unicode="(" horiz-adv-x="854" 
d="M666 80l-128 -329q-271 192 -361 401q-50 115 -50 230q0 70 19 140q7 27 18 57q109 285 472 509q290 180 467 216l-122 -283q-168 -86 -329 -232q-107 -98 -161 -215q-18 -37 -25 -62q-11 -41 -11 -82q0 -179 211 -350z" />
    <glyph glyph-name="parenright" unicode=")" horiz-adv-x="775" 
d="M56 80q373 207 433 432q7 27 10 62q1 16 1 31q0 183 -165 339q-60 58 -88 77l28 283q152 -31 353 -217q205 -189 205 -420q0 -43 -7 -88q-4 -31 -11 -57q-111 -415 -806 -771z" />
    <glyph glyph-name="asterisk" unicode="*" horiz-adv-x="856" 
d="M545 1322l258 -6l-55 -204l194 119l106 -142l-286 -147l126 -244l-239 -51l-128 204l-233 -210l-142 130l248 187l-214 142l205 159l118 -119z" />
    <glyph glyph-name="plus" unicode="+" horiz-adv-x="911" 
d="M211 737l285 22l80 217h265l-81 -199l265 23l-89 -228l-280 -7l-95 -230h-259l94 223l-255 -8z" />
    <glyph glyph-name="comma" unicode="," horiz-adv-x="690" 
d="M625 130l-435 -367l-291 92l579 322z" />
    <glyph glyph-name="hyphen" unicode="-" horiz-adv-x="911" 
d="M211 737l814 63l-89 -228l-795 -22z" />
    <glyph glyph-name="hyphen" unicode="&#xad;" horiz-adv-x="911" 
d="M211 737l814 63l-89 -228l-795 -22z" />
    <glyph glyph-name="period" unicode="." horiz-adv-x="456" 
d="M215 290q106 0 156 -57q29 -31 29 -62q0 -10 -3 -19q-18 -67 -95 -129q-32 -26 -54 -29q-45 -5 -67 -5q-155 0 -155 111q0 11 1 22q18 68 67 114q52 48 121 54z" />
    <glyph glyph-name="slash" unicode="/" horiz-adv-x="1420" 
d="M1645 1214l-1426 -1441l-432 -11l1399 1435z" />
    <glyph glyph-name="zero" unicode="0" horiz-adv-x="1114" 
d="M821 1162h6q269 0 347 -185q30 -75 30 -170q0 -96 -31 -213l-9 -33q-26 -98 -143 -239q-109 -133 -246 -217q-162 -99 -317 -99q-315 0 -374 244q-13 54 -13 118q0 92 27 204l4 14q23 87 74 189q114 229 349 330q130 56 296 57zM689 794h-6q-62 0 -113 -37
q-92 -66 -128 -201q-8 -29 -8 -55q0 -65 51 -105q36 -28 98 -28q132 13 195 92q38 48 54 107l2 7q11 40 11 73q0 46 -20 80q-39 65 -136 67z" />
    <glyph glyph-name="one" unicode="1" horiz-adv-x="563" 
d="M463 0l-380 -17l295 1021l-223 -17l87 170l555 142z" />
    <glyph glyph-name="two" unicode="2" horiz-adv-x="1173" 
d="M686 453q-126 -27 -237 -102q-89 -62 -160 -185l849 119l-85 -275l-1155 -158q108 402 269 587q131 129 280 175q158 24 333 131q193 124 210 187q1 3 1 5q0 8 -8 10q-22 4 -46 4q-48 0 -127 -13q-101 -17 -128 -20q-94 -8 -310 -94q-77 -30 -86 -35q-7 0 -24 112
q-14 105 -35 199q222 56 401 95q212 47 375 47q291 0 339 -170q4 -15 4 -32q0 -21 -6 -44q-40 -147 -233 -317q-205 -179 -421 -226z" />
    <glyph glyph-name="three" unicode="3" horiz-adv-x="1245" 
d="M501 698q18 -3 28 -3q141 0 304 132q66 54 73 80v3q0 17 -50 17q-98 0 -287 -29q-205 -31 -269 -59q-26 -11 -60 -39l-42 -34q-5 0 -21 112q-15 94 -37 199q222 57 401 96q212 46 375 46q289 0 338 -170q3 -9 3 -20q0 -10 -3 -21q-25 -92 -237 -260q27 -3 72 -29
q74 -43 122 -140q39 -81 39 -153q0 -35 -9 -67q-14 -53 -47 -98q-137 -183 -379 -250q-109 -20 -223 -30q-64 0 -105 6l-492 74l101 245q224 -49 389 -49q272 0 363 115q32 41 39 70q1 5 1 11q0 27 -29 65q-36 44 -67 49q-180 -58 -353 -73z" />
    <glyph glyph-name="four" unicode="4" horiz-adv-x="1067" 
d="M245 1066l362 28l-157 -402l229 -40l177 482l427 46l-530 -1367q-48 -16 -142 -16q-111 0 -225 16l215 624l-552 73z" />
    <glyph glyph-name="five" unicode="5" horiz-adv-x="1245" 
d="M206 488q-40 413 -110 658q41 -1 117 -1q439 0 816 66q223 40 330 77l-39 -245q-186 -58 -423 -99q-160 -28 -305 -28q-68 0 -126 8l-10 -210q260 52 429 52q90 0 131 -18q29 -3 72 -29q74 -43 122 -140q40 -81 40 -154q0 -34 -9 -66q-14 -53 -48 -98
q-136 -183 -403 -230q-110 -20 -211 -20q-63 0 -104 6l-492 74l112 215q225 -49 390 -49q272 0 363 115q32 41 39 70q1 5 1 11q0 27 -29 65q-36 44 -67 49q-116 -37 -586 -79z" />
    <glyph glyph-name="six" unicode="6" horiz-adv-x="1170" 
d="M832 437q-6 60 -58 96q-48 32 -116 32q-54 0 -133 -42q-123 -66 -160 -126q-6 -10 -11 -29q-7 -23 -7 -44q0 -49 37 -81q46 -42 128 -42q26 0 39 2q164 16 235 106q30 38 41 78q5 21 5 40v10zM643 782q54 13 106 13q60 0 116 -17q104 -33 149 -59q75 -44 121 -140
q40 -82 40 -155q0 -33 -9 -65q-14 -52 -47 -98q-128 -173 -333 -239q-121 -39 -246 -44q-48 -2 -86 -2q-261 0 -371 122q-51 58 -62 134v4q0 17 8 49q36 133 174 347q63 95 117 157q249 276 604 432q221 96 510 140l-286 -278q-165 -27 -319 -105q-153 -138 -186 -196z" />
    <glyph glyph-name="seven" unicode="7" horiz-adv-x="1414" 
d="M1044 924l-829 63l73 272l1337 -97l-1000 -1372l-409 -28z" />
    <glyph glyph-name="eight" unicode="8" horiz-adv-x="1245" 
d="M512 -23l-59 -1q-260 0 -370 122q-62 70 -62 159q0 37 11 78q47 177 207 278q94 59 233 107q-208 74 -208 193q0 19 5 39q13 49 53 97q149 179 443 179q34 0 88 -3q126 -8 188 -20q188 -37 232 -190q2 -7 2 -15t-2 -16q-14 -50 -136 -143l-120 -93q27 -3 72 -29
q74 -43 121 -140q40 -81 40 -154q0 -34 -9 -66q-14 -52 -48 -98q-126 -173 -360 -239q-149 -42 -321 -45zM602 518q-41 -8 -107 -39q-77 -36 -85 -65q-6 0 -23 -26.5t-20 -35.5q-2 -9 -2 -17q0 -78 222 -78q193 0 266 112q26 42 34 73q1 5 1 11q0 27 -29 65q-36 44 -67 49
q-107 -33 -190 -49zM603 952q-13 -10 -15 -19v-3q0 -16 53 -41l84 -38l109 40q85 31 90 49q1 3 1 5q0 7 -7 13q-46 40 -156 40q-106 0 -159 -46z" />
    <glyph glyph-name="nine" unicode="9" horiz-adv-x="1209" 
d="M614 766q11 -67 91 -67q44 0 131 32q99 36 107 69l6 8q16 30 22 53q4 15 4 28q0 69 -119 69q-16 0 -48 -3q-160 -13 -191 -132q-5 -18 -5 -35q0 -11 2 -22zM779 490q-129 -53 -218 -53q-83 0 -116 28q-117 17 -194 171q-39 78 -39 151q0 34 9 68q14 52 47 97
q162 218 428 266q98 17 179 18q8 0 30 1q18 1 29 1q259 0 369 -124q54 -59 63 -133v-4q0 -17 -8 -49q-27 -100 -121 -259q-89 -153 -170 -244q-143 -185 -652 -661l-192 136l283 282q209 208 273 308z" />
    <glyph glyph-name="colon" unicode=":" horiz-adv-x="795" 
d="M549 277q106 0 158 -54q29 -31 29 -63q0 -9 -3 -19q-19 -69 -95 -129q-32 -26 -55 -29q-41 -6 -65 -6q-157 0 -157 113q0 10 1 21q18 68 67 113q52 48 120 53zM493 703q106 0 157 -56q29 -30 29 -62q0 -10 -3 -20q-17 -66 -95 -128q-32 -26 -54 -29q-45 -5 -66 -5
q-155 0 -155 111q0 11 1 22q18 69 66 114q53 48 120 53z" />
    <glyph glyph-name="semicolon" unicode=";" horiz-adv-x="690" 
d="M495 703q106 0 157 -56q28 -30 28 -62q0 -10 -3 -20q-17 -66 -94 -128q-32 -26 -54 -29q-45 -5 -66 -5q-156 0 -156 110q0 11 2 23q18 69 66 114q52 48 120 53zM625 130l-435 -367l-291 92l579 322z" />
    <glyph glyph-name="semicolon" unicode="&#x37e;" horiz-adv-x="690" 
d="M495 703q106 0 157 -56q28 -30 28 -62q0 -10 -3 -20q-17 -66 -94 -128q-32 -26 -54 -29q-45 -5 -66 -5q-156 0 -156 110q0 11 2 23q18 69 66 114q52 48 120 53zM625 130l-435 -367l-291 92l579 322z" />
    <glyph glyph-name="less" unicode="&#x3c;" horiz-adv-x="1106" 
d="M205 743l1088 329l-98 -238l-457 -108l364 -113l-106 -245z" />
    <glyph glyph-name="equal" unicode="=" horiz-adv-x="910" 
d="M243 856l813 62l-88 -226l-796 -23zM156 556l813 62l-88 -227l-795 -23z" />
    <glyph glyph-name="greater" unicode="&#x3e;" horiz-adv-x="1029" 
d="M1128 743l-991 -375l24 245l426 113l-401 108l30 238z" />
    <glyph glyph-name="question" unicode="?" horiz-adv-x="1163" 
d="M427 614q153 4 353 131q193 124 210 187q1 3 1 5q0 8 -8 10q-22 4 -46 4q-48 0 -127 -13q-101 -17 -128 -20q-94 -8 -310 -94q-77 -30 -86 -35q-7 0 -24 112q-14 105 -35 199q222 56 401 95q212 47 375 47q290 0 339 -170q2 -6 2 -13q0 -11 -4 -24q-26 -98 -241 -265
q-156 -120 -328 -220q-207 -119 -313 -144zM550 277q106 0 158 -54q29 -31 29 -63q0 -9 -3 -19q-19 -69 -95 -129q-33 -26 -55 -29q-41 -6 -66 -6q-156 0 -156 113q0 10 1 21q18 68 67 113q52 48 120 53z" />
    <glyph glyph-name="at" unicode="@" horiz-adv-x="1275" 
d="M787 800q-62 0 -185 -136q-79 -87 -97 -152q-6 -23 -6 -45q0 -106 160 -152q79 -22 155 -25l-133 -290q-267 0 -445 125q-164 117 -164 325q0 53 11 111q4 20 15 61q97 365 433 490q130 49 291 50h12q283 0 452 -141q78 -67 95 -148q4 -19 4 -42q0 -47 -18 -114
q-55 -206 -212 -313q-90 -61 -199 -64h-14q-193 0 -385 137l258 226q54 -27 100 -27q34 0 42 22q2 6 2 11q0 42 -88 73q-43 14 -84 18z" />
    <glyph glyph-name="A" unicode="A" horiz-adv-x="1258" 
d="M873 1276l378 -1639l-355 -28l-186 754l-210 28l-501 -601l-434 -17zM558 556l191 -23l-10 267z" />
    <glyph glyph-name="B" unicode="B" horiz-adv-x="1321" 
d="M716 970l-14 -307q145 88 261 183q77 63 88 104q1 5 1 10q0 25 -38 33q-32 7 -70 7q-62 0 -228 -30zM727 301q224 71 249 164q1 5 1 11q0 27 -31 65q-37 43 -67 49q-74 -51 -133 -68zM1298 601q36 -76 36 -145q0 -34 -8 -66q-30 -111 -162 -203q-112 -77 -264 -122
q-101 -31 -181 -48l-302 -63l-30 908q-9 0 -67 -47q-28 -22 -34 -26q-7 0 -24 112q-14 105 -35 199q222 56 401 95q212 47 375 47q294 0 339 -170q2 -9 2 -18q0 -11 -3 -23q-24 -92 -236 -260q116 -14 193 -170z" />
    <glyph glyph-name="C" unicode="C" horiz-adv-x="1247" 
d="M1381 873l-426 -202q-17 77 -230 77q-58 0 -124 -66q-59 -58 -74 -116l-2 -5q-5 -23 -5 -43q0 -42 22 -71q33 -43 104 -44h9q168 0 297 149q4 -13 164 -145l83 -68q-180 -233 -463 -295q-122 -27 -233 -27q-333 0 -414 219q-24 64 -24 153q0 77 18 172q4 21 15 61
q97 365 433 490q130 49 291 50h11q177 0 337 -64q207 -81 211 -225z" />
    <glyph glyph-name="D" unicode="D" horiz-adv-x="1271" 
d="M983 947q-65 20 -105 20q-56 0 -117 -31l-127 -630q231 76 293 182q38 47 82 210q25 91 25 150q0 83 -51 99zM1342 1072q34 -103 34 -211q0 -97 -28 -199q-66 -249 -265 -430q-94 -87 -213 -142q-99 -47 -245 -67l-361 -51l123 890q-4 0 -50.5 -36.5t-50.5 -36.5
q-16 10 -16 159v50q1 35 1 60q0 51 -4 65q460 116 708 116q314 0 367 -167z" />
    <glyph glyph-name="E" unicode="E" horiz-adv-x="1407" 
d="M460 91l862 -34l-86 -300l-1199 50l213 1044l-122 -17l109 328l1041 126l-60 -301l-593 -80l-45 -215l587 79l-46 -249l-596 -90z" />
    <glyph glyph-name="F" unicode="F" horiz-adv-x="1054" 
d="M37 -193l213 1044l-122 -17l109 328l1041 126l-60 -301l-593 -80l-45 -215l444 56l-45 -249l-454 -67l-120 -625q-135 -15 -234 -15q-94 0 -134 15z" />
    <glyph glyph-name="G" unicode="G" horiz-adv-x="1247" 
d="M739 419l-55 23l144 182l430 -147l-314 -767l-414 29q57 87 107 163l88 137q-59 -22 -222 -22q-333 0 -414 219q-24 64 -24 153q0 77 18 172q4 21 15 61q97 365 433 490q130 49 291 50h11q177 0 337 -64q207 -81 211 -225l-426 -202q-17 77 -230 77q-58 0 -124 -66
q-59 -58 -74 -116l-2 -5q-5 -23 -5 -43q0 -42 22 -70q33 -42 104 -45q7 0 62 10q10 2 31 6z" />
    <glyph glyph-name="H" unicode="H" horiz-adv-x="1156" 
d="M748 1293l-109 -482h157l68 454l434 -29l-324 -1542l-340 5l121 811l-181 29l-204 -732l-375 -5l307 1326l-135 29l41 176z" />
    <glyph glyph-name="I" unicode="I" horiz-adv-x="1067" 
d="M630 318l421 -6l-88 -301h-1000l112 266l234 7l194 601l-375 -51l109 328l1041 126l-60 -301l-362 -57z" />
    <glyph glyph-name="J" unicode="J" horiz-adv-x="1274" 
d="M173 618l444 85l-35 -115q-14 -49 -14 -85q0 -18 4 -33q6 -27 24 -51q49 -65 96 -65q55 0 123 94q57 77 110 275q36 134 83 390q29 149 47 231l435 -28q-17 -201 -95 -493q-89 -331 -198 -494q-65 -97 -246 -214q-81 -52 -130 -73q-108 -46 -253 -46q-239 0 -369 112
q-111 98 -111 225q0 42 12 88q17 63 73 197z" />
    <glyph glyph-name="K" unicode="K" horiz-adv-x="1427" 
d="M242 1157l461 147l-60 -227l277 199l233 -199l-541 -493l705 -545l-54 -277l-759 391l-71 -340l-397 -6l248 1203l-129 -23z" />
    <glyph glyph-name="L" unicode="L" horiz-adv-x="1407" 
d="M460 91l862 -34l-87 -300l-1199 50l248 1203l-129 -23l87 170l461 147z" />
    <glyph glyph-name="M" unicode="M" horiz-adv-x="1413" 
d="M398 1032l415 23l69 -148l150 205l266 5l-11 -1213l-473 39l23 414l-137 -153l-77 193l-136 -351l-476 -29z" />
    <glyph glyph-name="N" unicode="N" horiz-adv-x="1156" 
d="M703 1304l95 -459l66 420l511 -18l-401 -1553l-312 -17l-115 737l-157 -607l-395 -5l307 1326l-135 29l41 176z" />
    <glyph glyph-name="O" unicode="O" horiz-adv-x="1455" 
d="M1436 1038q122 -93 122 -232q0 -49 -15 -103q-39 -147 -172 -295q-63 -69 -131 -124q-402 -325 -755 -325q-182 0 -304 80q-92 61 -120 190q-11 50 -11 100q0 67 19 136q58 217 266 374q263 200 499 278q127 41 246 41q197 0 356 -120zM1224 859q-29 -62 -85 -114
q-69 -64 -135 -64q-69 0 -69 58q0 17 6 39q26 97 169 155q-159 0 -248 -109q-40 -48 -54 -99q-6 -25 -6 -45q0 -47 32 -73q56 -46 123 -46q94 0 169 72q65 63 87 145q11 40 11 75v6z" />
    <glyph glyph-name="P" unicode="P" horiz-adv-x="1165" 
d="M227 1100q221 56 401 95q198 44 340 44q122 0 156 -6q116 -18 174 -83q32 -34 44 -78q3 -9 3 -19t-3 -21q-37 -137 -411 -389q-129 -87 -185 -121l32 -437l-252 -131l-139 908q-6 -3 -20 -13l-46 -35q-28 -21 -35 -25q-7 0 -24 112q-14 105 -35 199zM713 907l13 -204
q251 173 266 229q1 3 1 5q0 8 -10 10q-39 7 -72 7q-110 0 -198 -47z" />
    <glyph glyph-name="Q" unicode="Q" horiz-adv-x="1243" 
d="M782 732q-9 5 -22 5q-53 0 -147 -75q-70 -56 -120 -115q-68 -76 -83 -131v-2q-7 -29 -7 -47q0 -10 2 -17q14 -47 105 -47q127 0 236 156q46 69 63 132q9 35 9 62q0 54 -36 79zM651 42q-130 -50 -250 -50q-169 0 -281 99q-60 53 -60 151q0 55 19 124q56 207 193 371
q158 188 376 250q98 28 187 28q141 0 204 -57q121 -108 121 -268q0 -63 -19 -134q-47 -174 -204 -329q75 -45 145 -125q46 -53 59 -108l-276 -147q-39 90 -108 152q-48 43 -106 43z" />
    <glyph glyph-name="R" unicode="R" horiz-adv-x="1277" 
d="M664 930l-6 -204q53 10 138 74q90 68 102 116q1 5 1 9q0 13 -14 17q-80 17 -109 17q-54 0 -112 -29zM781 614q-87 -59 -136 -87l-27 -504l-301 -62l70 901q-8 0 -69 -48l-32 -25q-7 0 -24 112q-14 105 -35 199q222 56 401 95q212 47 375 47q290 0 339 -170q2 -7 2 -15
q0 -9 -3 -21q-16 -59 -132 -160q-53 -46 -114 -94q43 -4 72 -55q30 -55 30 -113v-7l-22 -613l-264 -45l-32 561q-3 39 -35 83q-18 24 -46 24q-6 0 -17 -3z" />
    <glyph glyph-name="S" unicode="S" horiz-adv-x="1190" 
d="M254 1072q137 164 431 164q165 0 362 -44q94 -21 338 -92q-17 -21 -124 -170q-98 -137 -103 -141q-25 26 -201 96q-75 29 -125 33q-34 4 -111 24q-69 17 -112 17q-38 0 -62 -12q-40 -20 -47 -47q-2 -6 -2 -13q0 -44 74 -100t183 -106q192 -90 261 -221q37 -72 37 -148
q0 -41 -11 -84q-17 -65 -57 -114q-140 -171 -429 -171q-208 0 -532 94l-164 48q32 38 140 195q81 117 86 117q39 -32 156 -79t171 -51q2 -1 168 -36q23 -5 55 -5q39 0 62 12q43 23 50 49q1 5 1 10q0 53 -139 122q-256 128 -378 323q-47 76 -47 153q0 33 9 67q15 55 60 110z
" />
    <glyph glyph-name="T" unicode="T" horiz-adv-x="1292" 
d="M1015 913l-203 -930h-50q-154 0 -262 11q-62 7 -88 17l184 891l-519 -6l80 273l1347 73l-60 -300z" />
    <glyph glyph-name="U" unicode="U" horiz-adv-x="1274" 
d="M768 1293q-21 -64 -43 -148q-75 -280 -108 -558q-8 -70 -8 -111q0 -29 4 -44q20 -80 70 -80q61 0 132 96q56 76 104 252q27 104 60 281l31 166q14 72 24 118l434 -29q-17 -202 -84 -454q-78 -290 -187 -453q-64 -97 -246 -214q-81 -52 -130 -73q-107 -46 -253 -46
q-241 0 -368 112q-70 62 -70 243q0 25 1 52q11 196 76 439q44 166 95 286l-135 29l41 176z" />
    <glyph glyph-name="V" unicode="V" horiz-adv-x="1496" 
d="M305 1055l-137 28l40 176l497 -28l92 -823l432 772l477 -23l-847 -1282l-373 6z" />
    <glyph glyph-name="W" unicode="W" horiz-adv-x="1311" 
d="M1051 -68l-414 -23l-70 148l-150 -205l-267 -5l12 1213l473 -39l-22 -414l135 153l78 -193l240 641l476 28z" />
    <glyph glyph-name="X" unicode="X" horiz-adv-x="1420" 
d="M661 232l-442 -459l-432 -11l805 799l-310 692l448 -56l143 -329l313 329l459 17l-663 -677l237 -713l-446 91z" />
    <glyph glyph-name="Y" unicode="Y" horiz-adv-x="1414" 
d="M335 1072l-167 11l40 176l497 -28l198 -528l326 477l396 -18l-1000 -1372l-409 -28l402 584z" />
    <glyph glyph-name="Z" unicode="Z" horiz-adv-x="1400" 
d="M1264 -34l-1324 -62l927 1145l-686 -45l37 318l1453 62l-988 -1197l671 40z" />
    <glyph glyph-name="bracketleft" unicode="[" horiz-adv-x="870" 
d="M332 1236l789 74l-107 -300l-331 -40l-326 -936l311 46l-97 -290l-706 -91z" />
    <glyph glyph-name="backslash" unicode="\" horiz-adv-x="1367" 
d="M773 -85l-491 1338l448 -56l490 -1373z" />
    <glyph glyph-name="bracketright" unicode="]" horiz-adv-x="869" 
d="M337 1208l778 85l-438 -1384l-711 -62l118 312l327 28l257 783l-451 -34z" />
    <glyph glyph-name="asciicircum" unicode="^" horiz-adv-x="1032" 
d="M789 1316l439 -136l-32 -193l-459 136l-502 -119l86 193z" />
    <glyph glyph-name="underscore" unicode="_" horiz-adv-x="1190" 
d="M10 62l1089 -28l-89 -255q-82 0 -240 4l-884 19z" />
    <glyph glyph-name="grave" unicode="`" horiz-adv-x="842" 
d="M1021 1043l-129 -125l-514 86l255 243z" />
    <glyph glyph-name="a" unicode="a" horiz-adv-x="1026" 
d="M734 678q-97 -10 -185 -70q-83 -56 -100 -120q-4 -14 -4 -26q0 -46 48 -77q54 -35 119 -35q12 0 35 3l39 148q-50 0 -50 43q0 13 5 30q18 68 93 104zM773 800l382 130l-98 -387q-2 -36 -14 -82q-11 -40 -19 -59l-104 -425l-378 -16l11 42q-100 -31 -194 -31
q-145 0 -224 66q-89 74 -89 200q0 56 18 122q45 167 188 269q248 178 469 178q31 0 47 -2z" />
    <glyph glyph-name="b" unicode="b" horiz-adv-x="1061" 
d="M377 13l-6 -24l-379 -17l292 1038l-129 -23l87 170l461 147l-123 -488q102 32 189 32q123 0 237 -58q106 -54 106 -180q0 -48 -16 -108q-27 -98 -85 -181q-26 -38 -56 -65q-181 -168 -374 -221q-87 -24 -170 -24q-16 2 -34 2zM517 565l-18 -73q3 -41 45 -67
q58 -35 118 -35q119 0 205 117q38 51 51 103q8 30 8 58v6q-26 -47 -78 -88q-59 -46 -110 -46q-52 0 -52 43q0 11 4 26q21 77 136 111q-129 0 -236 -79q-48 -35 -73 -76z" />
    <glyph glyph-name="c" unicode="c" horiz-adv-x="1014" 
d="M1056 651q13 -44 15 -61l-323 -57v2q0 55 -106 55q-215 -17 -266 -205l-1 -5q-10 -40 -10 -70q0 -87 79 -100q101 0 189 78q40 36 72 80l294 -52q-55 -88 -173 -179q-100 -77 -205 -109q-128 -38 -244 -38q-186 0 -300 101q-71 62 -71 157q0 40 12 84q59 219 289 396
q135 103 276 137q67 15 131 15q278 0 342 -229z" />
    <glyph glyph-name="d" unicode="d" horiz-adv-x="1026" 
d="M734 678q-97 -10 -185 -70q-83 -56 -100 -120q-4 -14 -4 -26q0 -46 48 -77q54 -35 119 -35q12 0 35 3l39 148q-50 0 -50 43q0 13 5 30q18 68 93 104zM906 1350l383 130l-232 -937q-2 -36 -14 -82q-11 -40 -19 -59l-104 -425l-378 -16l11 42q-100 -31 -194 -31
q-145 0 -224 66q-89 74 -89 200q0 56 18 122q45 167 188 269q248 178 469 178q31 0 47 -2z" />
    <glyph glyph-name="e" unicode="e" horiz-adv-x="1066" 
d="M869 383l145 -202q-82 -120 -378 -183q-130 -28 -255 -28q-234 0 -301 98q-36 52 -36 124q0 42 13 92q23 85 85 183q72 112 149 162q219 143 474 143q221 0 338 -109l-577 -453q120 0 237 81q55 38 106 92zM682 544q-37 17 -79 17q-100 0 -160 -51q-67 -57 -84 -122
q-6 -21 -6 -54q0 -24 3 -53z" />
    <glyph glyph-name="f" unicode="f" horiz-adv-x="950" 
d="M645 516q-16 -52 -46 -167q-47 -172 -89 -364q-21 -93 -27 -127l-419 -39q11 75 64 311q33 147 94 380h-196l38 318l251 -23q9 52 15 75q75 281 472 373q128 30 248 30q213 0 285 -95q26 -34 27 -105l-335 -159q-21 112 -103 112q-53 0 -110 -71q-14 -18 -47 -104
l-29 -72h220l-71 -267z" />
    <glyph glyph-name="g" unicode="g" horiz-adv-x="1013" 
d="M709 373l37 149q-78 0 -78 39q0 6 2 13q12 46 61 102q-134 -18 -224 -108q-41 -40 -51 -80q-4 -14 -4 -27q0 -45 48 -76q36 -22 111 -22q49 0 98 10zM894 -66q-2 -13 -5 -25q-27 -98 -124 -176q-202 -163 -438 -163q-212 0 -310 98q-45 50 -45 110q0 22 6 45
q19 71 118 179l216 -138q-12 -13 -15 -23q-1 -3 -1 -5q0 -15 26 -23q43 -13 90 -13q103 0 134 50q17 27 21 40q7 29 17 124q-116 -42 -225 -42q-145 0 -224 66q-89 74 -89 200q0 56 18 122q45 167 188 269q248 178 469 178q71 0 128 -15l283 104z" />
    <glyph glyph-name="h" unicode="h" horiz-adv-x="1200" 
d="M589 800q160 41 268 41q99 0 163 -36q94 -52 152 -160q28 -52 30 -101v-35q0 -126 -25 -222q-24 -90 -115 -287l-352 -17q12 34 29 99q48 179 48 321q0 76 -14 141q-15 72 -49 72q-44 0 -123 -100q-39 -49 -69 -136q-11 -32 -24 -81q-28 -106 -57 -271l-419 -39
q5 50 43 205q30 119 36 213l220 903l349 34z" />
    <glyph glyph-name="i" unicode="i" horiz-adv-x="549" 
d="M414 -130l-379 -18l179 743l-129 -23l86 171l462 147zM528 1310q106 0 157 -56q28 -31 28 -62q0 -9 -3 -19q-18 -69 -94 -129q-43 -34 -121 -34q-111 0 -144 62q-12 23 -12 52q0 9 1 19q18 68 68 113q51 48 120 54z" />
    <glyph glyph-name="j" unicode="j" horiz-adv-x="600" 
d="M586 1316q77 0 133 -36q52 -33 52 -79q0 -11 -3 -23q-10 -37 -56 -91q-39 -45 -75 -60q-30 -12 -85 -12q-111 0 -143 62q-12 24 -12 53q0 9 1 19q18 68 67 113q52 49 121 54zM494 -66q-27 -103 -126 -191q-203 -163 -439 -163q-213 0 -298 68q-84 62 -92 105
q32 121 131 229l233 -148l-2 -4q-1 -5 -1 -9q0 -21 25 -40q30 -21 77 -21q82 0 109 40q38 48 52 99q3 11 5 21q10 68 16 94l119 581l-128 -23l86 171l462 147z" />
    <glyph glyph-name="k" unicode="k" horiz-adv-x="1223" 
d="M242 1157l461 147l-153 -799l391 158l348 -45l-551 -300l368 -279l-54 -277l-548 391l-71 -340l-397 -6l248 1203l-129 -23z" />
    <glyph glyph-name="l" unicode="l" horiz-adv-x="563" 
d="M416 -176l-380 -17l248 1203l-129 -23l87 170l461 147z" />
    <glyph glyph-name="m" unicode="m" horiz-adv-x="1624" 
d="M965 794q230 57 335 57q83 0 136 -28q67 -38 126 -117q63 -87 65 -162v-28q0 -131 -26 -229q-24 -90 -113 -287l-353 -17q11 34 28 99q48 179 48 322q0 75 -13 140q-16 73 -60 73q-18 0 -24 -22q-2 -9 -2 -16v-5q3 -10 3 -30q1 -19 1 -37q0 -127 -25 -220
q-20 -74 -114 -287l-352 -17q11 34 28 99q48 178 48 320q0 76 -14 142q-3 35 -6 72q-15 -18 -80 -100q-39 -50 -71 -140q-10 -30 -23 -77q-28 -106 -57 -271l-419 -39q16 144 31 233q9 48 26 111q7 26 23 74l93 404l336 34l35 -45q141 35 224 35q92 0 166 -41z" />
    <glyph glyph-name="n" unicode="n" horiz-adv-x="1199" 
d="M575 800q203 52 299 52q82 0 136 -29q70 -40 128 -121q61 -86 63 -158v-35q0 -127 -25 -222q-24 -90 -114 -287l-353 -17q12 34 29 99q48 180 48 323q0 75 -13 139q-15 72 -49 72q-44 0 -123 -100q-39 -49 -70 -136q-11 -32 -24 -81q-28 -106 -57 -271l-419 -39
q16 144 31 233q9 48 26 111q7 26 23 74l93 404l336 34z" />
    <glyph glyph-name="o" unicode="o" horiz-adv-x="1020" 
d="M1032 678q27 -49 27 -113q0 -47 -15 -102q-26 -98 -84 -182q-26 -38 -56 -66q-264 -243 -545 -243q-145 0 -224 66q-89 74 -89 200q0 56 18 122q45 167 188 269q247 178 468 178q63 0 121 -14q146 -35 191 -115zM875 633q-25 -45 -78 -86q-59 -46 -111 -46q-51 0 -51 41
q0 11 4 26q21 78 136 113q-91 0 -189 -50q-114 -58 -137 -143q-4 -13 -4 -25q0 -42 43 -75q50 -38 122 -38q120 0 206 117q38 52 52 103q7 29 7 52v11z" />
    <glyph glyph-name="p" unicode="p" horiz-adv-x="1020" 
d="M354 -27l-61 -377l-378 -17l138 726q1 4 10 51l51 245l-129 -22l85 169l463 148l-23 -128q109 40 211 40q122 0 234 -58q105 -55 105 -179q0 -49 -16 -108q-26 -98 -84 -182q-26 -37 -56 -66q-180 -167 -376 -218q-89 -24 -174 -24zM459 513q-6 -23 -6 -43q0 -48 34 -79
q42 -41 123 -41q120 0 206 117q37 52 51 103q8 31 8 57v6q-25 -45 -78 -86q-59 -46 -111 -46q-51 0 -51 41q0 11 4 26q21 78 136 113q-135 0 -245 -88q-50 -39 -71 -80z" />
    <glyph glyph-name="q" unicode="q" horiz-adv-x="1013" 
d="M1121 879l-319 -1292l-315 -5l97 432q-116 -42 -225 -42q-145 0 -224 66q-89 74 -89 200q0 56 18 122q45 167 188 269q248 178 469 178q71 0 128 -15zM709 373l37 149q-78 0 -78 39q0 6 2 13q12 46 61 102q-134 -18 -224 -108q-41 -40 -51 -80q-4 -14 -4 -27
q0 -45 48 -76q36 -22 111 -22q49 0 98 10z" />
    <glyph glyph-name="r" unicode="r" horiz-adv-x="1080" 
d="M1161 675l-336 -159q-22 112 -102 112q-128 0 -212 -314q-32 -121 -61 -286l-419 -39q22 214 67 381q8 28 24 77l93 404l336 34l35 -46q203 54 298 54q79 0 136 -31q140 -77 141 -187z" />
    <glyph glyph-name="s" unicode="s" horiz-adv-x="1162" 
d="M1074 527q-67 23 -272 75q-200 52 -293 52q-27 0 -43 -7q-48 -26 -53 -48q-1 -4 -1 -9q0 -61 255 -85q292 -28 354 -174q16 -38 16 -77q0 -26 -7 -53q-13 -48 -45 -87q-142 -171 -416 -171q-146 0 -337 47q-71 17 -170 46l-168 49q30 36 171 194q45 51 47 56
q28 -29 149 -58q62 -15 99 -28q71 -25 160 -25q31 0 83 7q68 7 77 18v3q0 37 -221 60q-248 25 -348 137q-39 43 -39 101q0 25 7 52q23 86 94.5 161.5t159.5 108.5q104 38 233 38q160 0 363 -48q61 -15 338 -96q-65 -85 -159 -202q-28 -35 -34 -37z" />
    <glyph glyph-name="t" unicode="t" horiz-adv-x="1179" 
d="M482 1214l400 136l-131 -465l269 -6l-72 -266l-281 -3q-41 -98 -64 -185q-19 -70 -19 -114q0 -48 22 -65q29 -20 73 -20q47 0 87 21q48 25 60 69q1 6 2 24l312 148q23 -60 23 -124q0 -52 -15 -106q-55 -206 -328 -275q-103 -27 -190 -27q-235 0 -351 163q-21 30 -21 94
t20 160q15 78 36 156l21 78l-247 -6l23 312l305 -17z" />
    <glyph glyph-name="u" unicode="u" horiz-adv-x="1199" 
d="M265 862l398 -39q-60 -165 -88 -271q-28 -103 -28 -167q0 -29 6 -50q25 -100 68 -100q34 0 88 71q139 185 194 393q17 61 24 95l342 -17l-13 -174q-2 -26 -15 -73q-20 -73 -104 -224q-40 -72 -133 -154q-95 -86 -180 -121q-120 -51 -264 -51q-207 0 -342 93
q-112 77 -112 238q0 12 1 25q5 82 32 182q39 145 126 344z" />
    <glyph glyph-name="v" unicode="v" horiz-adv-x="1284" 
d="M145 868l450 -17l81 -437l312 425l412 -34l-671 -901l-391 11z" />
    <glyph glyph-name="w" unicode="w" horiz-adv-x="1965" 
d="M964 215l-236 -295l-390 -5l-193 953l450 -17l81 -437l188 264l-38 190l450 -17l80 -437l312 425l413 -34l-670 -901l-393 11z" />
    <glyph glyph-name="x" unicode="x" horiz-adv-x="1380" 
d="M631 132l-259 -217l-432 -11l539 457l-334 507l450 -17l162 -252l295 252l461 17l-606 -507l293 -457l-427 11z" />
    <glyph glyph-name="y" unicode="y" horiz-adv-x="1271" 
d="M113 675l368 130l196 -515l331 476l336 -119l-827 -1078l-301 102l181 261z" />
    <glyph glyph-name="z" unicode="z" horiz-adv-x="1380" 
d="M1200 -96h-1260l788 657l-579 -5l38 317l1326 -5l-863 -703h639z" />
    <glyph glyph-name="braceleft" unicode="{" horiz-adv-x="854" 
d="M666 80l-128 -329q-271 192 -361 401q-50 115 -50 230q0 70 19 140q7 27 18 57q109 285 472 509q290 180 467 216l-122 -283q-168 -86 -329 -232q-107 -98 -161 -215q-18 -37 -25 -62q-11 -41 -11 -82q0 -179 211 -350z" />
    <glyph glyph-name="bar" unicode="|" horiz-adv-x="590" 
d="M396 1350l480 91l-515 -1849l-487 -63z" />
    <glyph glyph-name="braceright" unicode="}" horiz-adv-x="775" 
d="M56 80q373 207 433 432q7 27 10 62q1 16 1 31q0 183 -165 339q-60 58 -88 77l28 283q152 -31 353 -217q205 -189 205 -420q0 -43 -7 -88q-4 -31 -11 -57q-111 -415 -806 -771z" />
    <glyph glyph-name="asciitilde" unicode="~" horiz-adv-x="992" 
d="M270 1055l62 159q161 72 286 72q66 0 130.5 -51t140.5 -51q139 0 255 68q51 30 58 58l-24 -244q-245 -62 -378 -62q-73 0 -89 23q-47 64 -213 64q-121 0 -228 -36z" />
    <glyph glyph-name="exclamdown" unicode="&#xa1;" horiz-adv-x="550" 
d="M490 1015q-78 0 -134 36q-51 33 -51 78q0 12 3 24q18 66 94 128q32 26 55 29q51 6 66 6q157 0 157 -110q0 -11 -2 -23q-42 -156 -188 -168zM562 823l-97 -766l-530 -125l334 868z" />
    <glyph glyph-name="cent" unicode="&#xa2;" horiz-adv-x="1247" 
d="M383 28q-222 20 -289 166q-31 68 -31 173q0 85 20 194q4 20 15 61q74 279 301 426q125 81 298 106l46 145q300 0 298 -6l-49 -159q258 -40 350 -158q36 -47 39 -103l-426 -202q-17 77 -230 77q-58 0 -124 -66q-59 -58 -74 -116l-2 -5q-5 -23 -5 -43q0 -42 22 -71
q33 -43 104 -44h9q168 0 297 149q4 -13 164 -145l83 -68q-133 -175 -329 -252q-87 -36 -180 -53l-38 -119h-307z" />
    <glyph glyph-name="sterling" unicode="&#xa3;" horiz-adv-x="1392" 
d="M730 73l512 -16l-87 -300l-1199 50q4 34 49 200q307 25 328 101l109 402h-196l38 318l251 -23q9 52 15 75q75 281 472 373q128 30 248 30q213 0 285 -95q26 -34 27 -105l-335 -159q-21 112 -103 112q-53 0 -110 -71q-14 -18 -47 -104l-29 -72h220l-71 -267l-242 -6
q-26 -90 -71 -222l-30 -87q-7 -22 -18 -62q-6 -23 -16 -72z" />
    <glyph glyph-name="currency" unicode="&#xa4;" horiz-adv-x="1420" 
d="M1108 826q-25 -45 -78 -86q-58 -46 -110 -46q-51 0 -51 41q0 11 4 26q21 78 136 113q-91 0 -189 -50q-115 -58 -138 -143q-3 -12 -3 -24q0 -43 43 -76q49 -38 121 -38q120 0 207 117q38 52 51 103q8 27 8 50q0 7 -1 13zM1049 334l170 -510l-446 91l-90 256q-43 -6 -87 -6
l-377 -392l-432 -11l531 527q-37 60 -37 142q0 56 17 122q44 163 180 263l-196 437l448 -56l92 -212q67 15 132 15q22 0 42 -2l190 199l459 17l-366 -374q13 -38 13 -83q0 -47 -14 -101q-26 -98 -84 -182q-26 -38 -57 -66q-43 -40 -88 -74z" />
    <glyph glyph-name="yen" unicode="&#xa5;" horiz-adv-x="1414" 
d="M335 1072l-167 11l40 176l497 -28l198 -528l326 477l396 -18l-387 -530l178 4l-87 -199l-210 5l-112 -148l257 1l-103 -181l-296 -9l-240 -315l-409 -28l240 350l-283 -4l77 187l337 7l31 44l-6 79l-321 23l46 193l167 -5z" />
    <glyph glyph-name="brokenbar" unicode="&#xa6;" horiz-adv-x="590" 
d="M617 550l-256 -958l-487 -63l266 993zM206 686l190 664l480 91l-206 -738z" />
    <glyph glyph-name="section" unicode="&#xa7;" horiz-adv-x="1190" 
d="M972 876q-25 -45 -78 -86q-59 -46 -111 -46q-51 0 -51 41q0 11 4 26q21 78 137 113q-91 0 -190 -50q-114 -58 -137 -143q-4 -13 -4 -25q0 -42 43 -75q50 -38 122 -38q120 0 206 117q38 52 52 103q7 29 7 52v11zM273 806l-14 36q-33 88 -33 176q0 63 17 126q20 75 71 151
q153 225 447 225q165 0 358 -60q91 -29 328 -127q-19 -29 -140 -233q-112 -188 -117 -194q-23 36 -192 132q-72 40 -122 45q-33 6 -108 33q-68 24 -111 24q-38 0 -63 -17q-41 -27 -51 -64q-3 -12 -3 -25q0 -21 9 -45q138 61 268 61q63 0 122 -14q145 -35 190 -115
q27 -49 27 -113q0 -47 -15 -102q-26 -98 -84 -182q-21 -32 -46 -56q2 -7 4 -13q24 -79 24 -160q0 -78 -22 -159q-23 -89 -68 -156q-157 -235 -446 -235q-208 0 -523 129l-159 66q36 52 160 268q93 160 98 160q35 -44 147 -108.5t166 -69.5q2 -2 165 -50q22 -7 54 -7
q39 0 63 17q46 32 55 67q3 10 3 19q0 18 -8 36q-131 -57 -267 -57q-145 0 -225 66q-88 74 -88 198q0 57 18 124q31 118 111 203z" />
    <glyph glyph-name="dieresis" unicode="&#xa8;" horiz-adv-x="979" 
d="M277 1134q19 73 63 121q50 55 119 55h2q74 -2 130 -35q52 -33 52 -82q0 -13 -4 -28q-4 -17 -17 -37q-95 -158 -232 -158q-67 5 -99 51q-20 29 -20 68q0 21 6 45zM833 1151q20 74 64 122q50 54 115 54h5q75 -1 129 -35q54 -32 54 -82q0 -13 -4 -27q-5 -18 -17 -37
q-96 -159 -234 -159q-88 7 -113 81q-5 17 -5 37q0 21 6 46z" />
    <glyph glyph-name="copyright" unicode="&#xa9;" horiz-adv-x="1000" 
d="M1012 1018l-213 -101q-8 38 -115 38q-29 0 -62 -33q-30 -29 -37 -58l-1 -2q-3 -12 -3 -22q0 -21 12 -35q16 -22 52 -22h4q84 0 149 74q2 -6 81 -72l42 -34q-90 -117 -231 -148q-62 -13 -117 -13q-167 0 -207 109q-12 32 -12 77q0 38 9 86q2 10 7 30q49 183 217 245
q65 25 145 25h6q88 0 169 -32q103 -40 105 -112zM785 1250q-166 0 -312.5 -110t-188.5 -265q-13 -49 -13 -94q0 -96 60 -171q87 -110 253 -110t312.5 110t187.5 265q14 50 14 96q0 95 -59 169q-88 110 -254 110zM1083 1176q67 -84 67 -192q0 -52 -16 -109
q-47 -176 -212 -300.5t-351 -124.5t-285 125q-67 84 -67 192q0 51 15 108q48 176 213 300.5t351 124.5t285 -124z" />
    <glyph glyph-name="ordfeminine" unicode="&#xaa;" 
d="M0 200v1100q0 200 200 200h1100q200 0 200 -200v-1100q0 -200 -200 -200h-1100q-200 0 -200 200zM1475 201v1099q0 175 -175 175h-1100q-174 0 -175 -175v-1100q1 -175 175 -175h1101q174 0 174 176z" />
    <glyph glyph-name="guillemotleft" unicode="&#xab;" horiz-adv-x="1872" 
d="M205 743l1088 329l-98 -238l-457 -108l364 -113l-106 -245zM971 743l1088 329l-98 -238l-457 -108l364 -113l-106 -245z" />
    <glyph glyph-name="logicalnot" unicode="&#xac;" horiz-adv-x="1027" 
d="M293 767h840l-132 -491l-1 -1h-98l105 392h-741z" />
    <glyph glyph-name="registered" unicode="&#xae;" horiz-adv-x="1000" 
d="M647 1056l-3 -102q26 5 69 37q45 34 51 58q1 3 1 5q0 7 -7 8q-41 9 -55 9q-27 0 -56 -15zM904 615q140 109 180 260q14 50 14 96q0 95 -59 169q-88 110 -254 110q-151 0 -287 -92q71 18 131 31q106 23 187 23q145 0 170 -85q1 -3 1 -6q0 -5 -2 -12q-8 -29 -66 -80
q-26 -23 -57 -47q22 -2 36 -27q15 -27 15 -56v-4zM434 1109q-114 -100 -150 -234q-13 -49 -13 -94q0 -96 60 -171q87 -110 253 -110q141 0 268 80l-81 -14l-17 280q-1 20 -17 42q-9 12 -23 12q-3 0 -9 -2q-43 -29 -68 -43l-13 -252l-151 -31l35 450q-4 0 -35 -24l-15 -12
q-4 0 -12 56q-5 35 -12 67zM1083 1176q67 -84 67 -192q0 -52 -16 -109q-47 -176 -212 -300.5t-351 -124.5t-285 125q-67 84 -67 192q0 51 15 108q48 176 213 300.5t351 124.5t285 -124z" />
    <glyph glyph-name="macron" unicode="&#xaf;" 
d="M0 200v1100q0 200 200 200h1100q200 0 200 -200v-1100q0 -200 -200 -200h-1100q-200 0 -200 200zM1475 201v1099q0 175 -175 175h-1100q-174 0 -175 -175v-1100q1 -175 175 -175h1101q174 0 174 176z" />
    <glyph glyph-name="degree" unicode="&#xb0;" horiz-adv-x="716" 
d="M707 1372q-86 0 -164 -61t-101 -148q-8 -30 -8 -57q0 -51 29 -90q45 -60 132 -60t163 60t100 147q8 30 8 57q0 51 -29 91q-44 61 -130 61zM725 1442q115 0 175 -81q39 -54 39 -122q0 -36 -11 -75q-31 -114 -135 -196t-219 -82q-117 0 -175 81q-38 53 -38 120q0 37 11 77
q31 116 134 197t219 81z" />
    <glyph glyph-name="plusminus" unicode="&#xb1;" horiz-adv-x="911" 
d="M211 737l285 22l80 217h265l-81 -199l265 23l-89 -228l-281 -7l-95 -230h-258l94 223l-255 -8zM71 261l800 40l-58 -165l-811 -28z" />
    <glyph glyph-name="uni00B2" unicode="&#xb2;" 
d="M0 200v1100q0 200 200 200h1100q200 0 200 -200v-1100q0 -200 -200 -200h-1100q-200 0 -200 200zM1475 201v1099q0 175 -175 175h-1100q-174 0 -175 -175v-1100q1 -175 175 -175h1101q174 0 174 176z" />
    <glyph glyph-name="uni00B3" unicode="&#xb3;" 
d="M0 200v1100q0 200 200 200h1100q200 0 200 -200v-1100q0 -200 -200 -200h-1100q-200 0 -200 200zM1475 201v1099q0 175 -175 175h-1100q-174 0 -175 -175v-1100q1 -175 175 -175h1101q174 0 174 176z" />
    <glyph glyph-name="acute" unicode="&#xb4;" horiz-adv-x="842" 
d="M388 1043l497 204l126 -243l-561 -86z" />
    <glyph glyph-name="mu" unicode="&#xb5;" 
d="M0 200v1100q0 200 200 200h1100q200 0 200 -200v-1100q0 -200 -200 -200h-1100q-200 0 -200 200zM1475 201v1099q0 175 -175 175h-1100q-174 0 -175 -175v-1100q1 -175 175 -175h1101q174 0 174 176z" />
    <glyph glyph-name="paragraph" unicode="&#xb6;" horiz-adv-x="1029" 
d="M1314 1435l-19 -70h-127l-366 -1365h-82l366 1365h-166l-366 -1365h-84l198 738q-172 8 -248 103q-50 61 -50 148q0 45 14 97q42 157 175.5 253t311.5 96h443z" />
    <glyph glyph-name="periodcentered" unicode="&#xb7;" horiz-adv-x="479" 
d="M343 740l105 84q19 14 33 14q13 0 26 -16l57 -86q5 -11 5 -20q0 -5 -1 -9q-4 -15 -22 -31l-103 -88q-26 -20 -35 -20q-16 0 -25 14l-61 101q-4 8 -4 16q0 5 1 10q4 15 24 31z" />
    <glyph glyph-name="periodcentered" unicode="&#x2219;" horiz-adv-x="479" 
d="M343 740l105 84q19 14 33 14q13 0 26 -16l57 -86q5 -11 5 -20q0 -5 -1 -9q-4 -15 -22 -31l-103 -88q-26 -20 -35 -20q-16 0 -25 14l-61 101q-4 8 -4 16q0 5 1 10q4 15 24 31z" />
    <glyph glyph-name="cedilla" unicode="&#xb8;" horiz-adv-x="955" 
d="M710 38q110 -79 110 -154q0 -13 -3 -26q-31 -114 -280 -187q-86 -26 -125 -34l-245 176q261 17 287 114q2 8 2 16q0 37 -42 78l-81 81l86 3q124 5 211 14z" />
    <glyph glyph-name="uni00B9" unicode="&#xb9;" 
d="M0 200v1100q0 200 200 200h1100q200 0 200 -200v-1100q0 -200 -200 -200h-1100q-200 0 -200 200zM1475 201v1099q0 175 -175 175h-1100q-174 0 -175 -175v-1100q1 -175 175 -175h1101q174 0 174 176z" />
    <glyph glyph-name="ordmasculine" unicode="&#xba;" 
d="M0 200v1100q0 200 200 200h1100q200 0 200 -200v-1100q0 -200 -200 -200h-1100q-200 0 -200 200zM1475 201v1099q0 175 -175 175h-1100q-174 0 -175 -175v-1100q1 -175 175 -175h1101q174 0 174 176z" />
    <glyph glyph-name="guillemotright" unicode="&#xbb;" horiz-adv-x="1795" 
d="M1128 743l-991 -375l24 245l426 113l-401 108l30 238zM1894 743l-991 -375l24 245l426 113l-401 108l30 238z" />
    <glyph glyph-name="onequarter" unicode="&#xbc;" 
d="M0 200v1100q0 200 200 200h1100q200 0 200 -200v-1100q0 -200 -200 -200h-1100q-200 0 -200 200zM1475 201v1099q0 175 -175 175h-1100q-174 0 -175 -175v-1100q1 -175 175 -175h1101q174 0 174 176z" />
    <glyph glyph-name="onehalf" unicode="&#xbd;" 
d="M0 200v1100q0 200 200 200h1100q200 0 200 -200v-1100q0 -200 -200 -200h-1100q-200 0 -200 200zM1475 201v1099q0 175 -175 175h-1100q-174 0 -175 -175v-1100q1 -175 175 -175h1101q174 0 174 176z" />
    <glyph glyph-name="threequarters" unicode="&#xbe;" 
d="M0 200v1100q0 200 200 200h1100q200 0 200 -200v-1100q0 -200 -200 -200h-1100q-200 0 -200 200zM1475 201v1099q0 175 -175 175h-1100q-174 0 -175 -175v-1100q1 -175 175 -175h1101q174 0 174 176z" />
    <glyph glyph-name="questiondown" unicode="&#xbf;" horiz-adv-x="1122" 
d="M853 605q-148 -2 -352 -132q-193 -124 -210 -185q-1 -4 -1 -7q0 -8 8 -9q21 -4 45 -4q47 0 127 13q102 17 129 20q99 10 306 92q80 32 90 39q21 0 39 -150q5 -43 20 -163q-212 -54 -401 -95q-211 -47 -376 -47q-287 0 -338 171q-3 7 -3 16t3 20q35 130 377 363
q332 226 507 267zM729 942q-155 0 -183 96q-3 10 -3 20t3 21q18 67 94 128q33 26 56 29q46 6 66 6q157 0 157 -110q0 -11 -2 -23q-23 -88 -97 -137q-40 -26 -91 -30z" />
    <glyph glyph-name="Agrave" unicode="&#xc0;" horiz-adv-x="1252" 
d="M739 800l-181 -244l191 -23zM873 1276l378 -1639l-355 -28l-186 754l-210 28l-501 -601l-434 -17zM1211 1446l-128 -124l-515 84l256 245z" />
    <glyph glyph-name="Aacute" unicode="&#xc1;" horiz-adv-x="1246" 
d="M739 800l-181 -244l191 -23zM873 1276l378 -1639l-355 -28l-186 754l-210 28l-501 -601l-434 -17zM590 1464l497 203l125 -244l-560 -85z" />
    <glyph glyph-name="Acircumflex" unicode="&#xc2;" horiz-adv-x="1252" 
d="M739 800l-181 -244l191 -23zM873 1276l378 -1639l-355 -28l-186 754l-210 28l-501 -601l-434 -17zM959 1645l439 -136l-30 -193l-461 135l-502 -118l86 193z" />
    <glyph glyph-name="Atilde" unicode="&#xc3;" horiz-adv-x="1252" 
d="M739 800l-181 -244l191 -23zM873 1276l378 -1639l-355 -28l-186 754l-210 28l-501 -601l-434 -17zM417 1451l63 160q158 72 285 72q65 0 130 -51t142 -51q139 0 255 69q50 29 57 57l-24 -243q-238 -63 -378 -63q-73 0 -90 22q-46 65 -211 65q-124 0 -229 -37z" />
    <glyph glyph-name="Adieresis" unicode="&#xc4;" horiz-adv-x="1252" 
d="M739 800l-181 -244l191 -23zM873 1276l378 -1639l-355 -28l-186 754l-210 28l-501 -601l-434 -17zM486 1509q20 73 63 121q50 55 118 55h2q78 -2 131 -35q53 -32 53 -82q0 -13 -4 -28q-5 -18 -17 -37q-97 -159 -233 -159q-88 8 -113 81q-6 18 -6 39t6 45zM1042 1526
q47 176 180 176h3q123 -2 168 -73q15 -21 15 -46q0 -13 -4 -26q-4 -17 -16 -37q-94 -159 -225 -159h-8q-66 2 -98 51q-21 31 -21 69q0 21 6 45z" />
    <glyph glyph-name="Aring" unicode="&#xc5;" horiz-adv-x="1252" 
d="M739 800l-181 -244l191 -23zM873 1276l378 -1639l-355 -28l-186 754l-210 28l-501 -601l-434 -17zM745 1537q20 74 63 121q50 55 119 55h2q76 -2 131 -35q51 -31 51 -80q0 -14 -4 -30q-4 -17 -16 -37q-97 -159 -232 -159q-88 8 -114 81q-6 19 -6 40t6 44z" />
    <glyph glyph-name="AE" unicode="&#xc6;" horiz-adv-x="1992" 
d="M739 800l-181 -244l191 -23zM743 357l-243 34l-501 -601l-434 -17l1308 1503l1011 91l-60 -301l-670 -90l-33 -221l652 96l-46 -250l-626 -102l-33 -329l860 -34l-87 -301l-1142 80z" />
    <glyph glyph-name="Ccedilla" unicode="&#xc7;" horiz-adv-x="1247" 
d="M712 38q109 -79 109 -154q0 -13 -3 -26q-31 -114 -280 -187q-86 -26 -124 -34l-246 176q261 17 287 114q2 7 2 15q0 35 -42 79q-273 28 -334 241q-16 56 -16 128q0 76 18 171q4 22 15 61q97 365 433 490q130 49 291 50h11q177 0 337 -64q207 -81 211 -225l-426 -202
q-17 77 -230 77q-58 0 -124 -66q-59 -58 -74 -116l-2 -5q-5 -23 -5 -43q0 -42 22 -71q33 -43 104 -44h9q168 0 297 149q4 -13 164 -145l83 -68q-180 -236 -487 -301z" />
    <glyph glyph-name="Egrave" unicode="&#xc8;" horiz-adv-x="1407" 
d="M460 91l862 -34l-86 -300l-1199 50l213 1044l-122 -17l109 328l1041 126l-60 -301l-593 -80l-45 -215l587 79l-46 -249l-596 -90zM1211 1446l-128 -124l-515 84l256 245z" />
    <glyph glyph-name="Eacute" unicode="&#xc9;" horiz-adv-x="1407" 
d="M460 91l862 -34l-86 -300l-1199 50l213 1044l-122 -17l109 328l1041 126l-60 -301l-593 -80l-45 -215l587 79l-46 -249l-596 -90zM591 1464l497 203l124 -244l-560 -85z" />
    <glyph glyph-name="Ecircumflex" unicode="&#xca;" horiz-adv-x="1407" 
d="M460 91l862 -34l-86 -300l-1199 50l213 1044l-122 -17l109 328l1041 126l-60 -301l-593 -80l-45 -215l587 79l-46 -249l-596 -90zM959 1645l439 -136l-30 -193l-461 135l-502 -118l86 193z" />
    <glyph glyph-name="Edieresis" unicode="&#xcb;" horiz-adv-x="1407" 
d="M460 91l862 -34l-86 -300l-1199 50l213 1044l-122 -17l109 328l1041 126l-60 -301l-593 -80l-45 -215l587 79l-46 -249l-596 -90zM486 1509q20 73 64 121q49 55 117 55h2q78 -2 131 -35q53 -32 53 -82q0 -13 -4 -28q-5 -18 -17 -37q-96 -159 -233 -159q-87 8 -112 81
q-7 19 -7 40t6 44zM1043 1526q47 176 180 176h3q122 -2 168 -73q15 -21 15 -46q0 -13 -4 -26q-4 -17 -17 -37q-94 -159 -225 -159h-8q-65 2 -97 51q-21 31 -21 69q0 21 6 45z" />
    <glyph glyph-name="Igrave" unicode="&#xcc;" horiz-adv-x="1067" 
d="M630 318l421 -6l-88 -301h-1000l112 266l234 7l194 601l-375 -51l109 328l1041 126l-60 -301l-362 -57zM1211 1446l-128 -124l-515 84l256 245z" />
    <glyph glyph-name="Iacute" unicode="&#xcd;" horiz-adv-x="1067" 
d="M630 318l421 -6l-88 -301h-1000l112 266l234 7l194 601l-375 -51l109 328l1041 126l-60 -301l-362 -57zM591 1464l497 203l124 -244l-560 -85z" />
    <glyph glyph-name="Icircumflex" unicode="&#xce;" horiz-adv-x="1115" 
d="M630 318l421 -6l-88 -301h-1000l112 266l234 7l194 601l-375 -51l109 328l1041 126l-60 -301l-362 -57zM959 1645l439 -136l-30 -193l-461 135l-502 -118l86 193z" />
    <glyph glyph-name="Idieresis" unicode="&#xcf;" horiz-adv-x="1088" 
d="M630 318l421 -6l-88 -301h-1000l112 266l234 7l194 601l-375 -51l109 328l1041 126l-60 -301l-362 -57zM486 1509q20 73 64 121q49 55 117 55h2q78 -2 131 -35q53 -32 53 -82q0 -13 -4 -28q-5 -18 -17 -37q-96 -159 -233 -159q-87 8 -112 81q-7 19 -7 40t6 44zM1043 1526
q47 176 180 176h3q122 -2 168 -73q15 -21 15 -46q0 -13 -4 -26q-4 -17 -17 -37q-94 -159 -225 -159h-8q-65 2 -97 51q-21 31 -21 69q0 21 6 45z" />
    <glyph glyph-name="Eth" unicode="&#xd0;" horiz-adv-x="1271" 
d="M983 947q-65 20 -105 20q-57 0 -117 -31l-47 -233h148l-71 -289h-136l-21 -108q231 76 293 182q38 47 82 210q25 91 25 150q0 83 -51 99zM1342 1072q34 -103 34 -211q0 -97 -28 -199q-66 -249 -265 -430q-94 -87 -213 -142q-99 -47 -245 -67l-361 -51l62 442h-160l58 295
h143l20 153q-4 0 -50.5 -36.5t-50.5 -36.5q-16 10 -16 159v50q1 35 1 60q0 51 -4 65q460 116 708 116q314 0 367 -167z" />
    <glyph glyph-name="Ntilde" unicode="&#xd1;" horiz-adv-x="1155" 
d="M703 1304l95 -459l65 420l512 -18l-402 -1553l-312 -17l-114 737l-157 -607l-396 -5l308 1326l-135 29l41 176zM417 1451l62 160q159 72 285 72q66 0 131 -51t141 -51q140 0 255 69q50 29 57 57l-24 -243q-237 -63 -377 -63q-74 0 -90 22q-47 65 -211 65q-125 0 -229 -37
z" />
    <glyph glyph-name="Ograve" unicode="&#xd2;" horiz-adv-x="1455" 
d="M1436 1038q122 -93 122 -232q0 -49 -15 -103q-39 -147 -172 -295q-62 -69 -130 -124q-402 -325 -756 -325q-181 0 -304 80q-91 61 -120 190q-11 50 -11 100q0 67 19 136q58 217 266 374q263 200 500 278q127 41 245 41q198 0 356 -120zM1224 859q-29 -62 -84 -114
q-70 -64 -135 -64q-70 0 -70 58q0 17 6 39q26 97 169 155q-158 0 -248 -109q-39 -48 -53 -99q-7 -25 -7 -46q0 -46 32 -72q56 -46 124 -46q93 0 169 72q65 63 87 145q10 37 10 70v11zM1211 1446l-127 -124l-516 84l256 245z" />
    <glyph glyph-name="Oacute" unicode="&#xd3;" horiz-adv-x="1455" 
d="M1436 1038q122 -93 122 -232q0 -49 -15 -103q-39 -147 -172 -295q-62 -69 -130 -124q-402 -325 -756 -325q-181 0 -304 80q-91 61 -120 190q-11 50 -11 100q0 67 19 136q58 217 266 374q263 200 500 278q127 41 245 41q198 0 356 -120zM1224 859q-29 -62 -84 -114
q-70 -64 -135 -64q-70 0 -70 58q0 17 6 39q26 97 169 155q-158 0 -248 -109q-39 -48 -53 -99q-7 -25 -7 -46q0 -46 32 -72q56 -46 124 -46q93 0 169 72q65 63 87 145q10 37 10 70v11zM879 1475l497 204l126 -244l-561 -85z" />
    <glyph glyph-name="Ocircumflex" unicode="&#xd4;" horiz-adv-x="1455" 
d="M1436 1038q122 -93 122 -232q0 -49 -15 -103q-39 -147 -172 -295q-62 -69 -130 -124q-402 -325 -756 -325q-181 0 -304 80q-91 61 -120 190q-11 50 -11 100q0 67 19 136q58 217 266 374q263 200 500 278q127 41 245 41q198 0 356 -120zM1224 859q-29 -62 -84 -114
q-70 -64 -135 -64q-70 0 -70 58q0 17 6 39q26 97 169 155q-158 0 -248 -109q-39 -48 -53 -99q-7 -25 -7 -46q0 -46 32 -72q56 -46 124 -46q93 0 169 72q65 63 87 145q10 37 10 70v11zM1110 1651l440 -137l-31 -192l-461 135l-500 -119l85 193z" />
    <glyph glyph-name="Otilde" unicode="&#xd5;" horiz-adv-x="1455" 
d="M1436 1038q122 -93 122 -232q0 -49 -15 -103q-39 -147 -172 -295q-62 -69 -130 -124q-402 -325 -756 -325q-181 0 -304 80q-91 61 -120 190q-11 50 -11 100q0 67 19 136q58 217 266 374q263 200 500 278q127 41 245 41q198 0 356 -120zM1224 859q-29 -62 -84 -114
q-70 -64 -135 -64q-70 0 -70 58q0 17 6 39q26 97 169 155q-158 0 -248 -109q-39 -48 -53 -99q-7 -25 -7 -46q0 -46 32 -72q56 -46 124 -46q93 0 169 72q65 63 87 145q10 37 10 70v11zM643 1457l63 159q160 73 286 73q65 0 129.5 -51.5t141.5 -51.5q139 0 254 69q51 30 59 58
l-24 -244q-247 -63 -378 -63q-73 0 -89 23q-47 66 -212 66q-126 0 -230 -38z" />
    <glyph glyph-name="Odieresis" unicode="&#xd6;" horiz-adv-x="1455" 
d="M1436 1038q122 -93 122 -232q0 -49 -15 -103q-39 -147 -172 -295q-62 -69 -130 -124q-402 -325 -756 -325q-181 0 -304 80q-91 61 -120 190q-11 50 -11 100q0 67 19 136q58 217 266 374q263 200 500 278q127 41 245 41q198 0 356 -120zM1224 859q-29 -62 -84 -114
q-70 -64 -135 -64q-70 0 -70 58q0 17 6 39q26 97 169 155q-158 0 -248 -109q-39 -48 -53 -99q-7 -25 -7 -46q0 -46 32 -72q56 -46 124 -46q93 0 169 72q65 63 87 145q10 37 10 70v11zM622 1509q20 73 64 121q49 55 118 55h2q76 -2 130 -36q54 -32 54 -82q0 -13 -4 -27
q-5 -18 -17 -37q-96 -159 -234 -159q-66 5 -98 51q-21 30 -21 68q0 22 6 46zM1179 1526q47 176 181 176h3q121 -2 167 -73q15 -21 15 -46q0 -13 -4 -26q-5 -21 -17 -37q-94 -159 -225 -159h-8q-65 2 -97 51q-21 31 -21 69q0 21 6 45z" />
    <glyph glyph-name="multiply" unicode="&#xd7;" horiz-adv-x="1060" 
d="M211 862l279 176q31 -33 84 -83l93 -91q29 -29 33 -30l339 193l163 -125l-330 -188l229 -164l-355 -131l-159 120l-289 -114l-123 176l240 108z" />
    <glyph glyph-name="Oslash" unicode="&#xd8;" horiz-adv-x="1489" 
d="M1224 859q-29 -62 -84 -114q-70 -64 -135 -64q-70 0 -70 58q0 17 6 39q26 97 169 155q-158 0 -248 -109q-39 -48 -53 -99q-7 -25 -7 -46q0 -46 32 -72q56 -46 124 -46q93 0 169 72q65 63 87 145q10 37 10 70v11zM-114 57l187 130q-22 65 -22 136q0 68 20 142
q58 218 264 374q263 200 500 278q127 41 245 41q115 0 220 -42q56 41 168 120l211 -153l-164 -132q42 -66 42 -148q0 -47 -14 -100q-59 -222 -302 -419q-401 -325 -756 -325q-133 0 -237 47l-178 -108z" />
    <glyph glyph-name="Ugrave" unicode="&#xd9;" horiz-adv-x="1274" 
d="M768 1293q-22 -64 -44 -148q-75 -280 -108 -558q-7 -68 -7 -109q0 -31 4 -46q20 -80 70 -80q61 0 132 96q55 76 103 252q27 104 61 281l31 166q14 72 24 118l433 -29q-16 -202 -83 -454q-78 -290 -187 -453q-64 -97 -246 -214q-81 -52 -130 -73q-108 -46 -254 -46
q-240 0 -368 112q-69 61 -69 242q0 26 1 53q11 196 76 439q44 166 95 286l-135 29l41 176zM1210 1446l-127 -124l-516 84l256 245z" />
    <glyph glyph-name="Uacute" unicode="&#xda;" horiz-adv-x="1274" 
d="M768 1293q-22 -64 -44 -148q-75 -280 -108 -558q-7 -68 -7 -109q0 -31 4 -46q20 -80 70 -80q61 0 132 96q55 76 103 252q27 104 61 281l31 166q14 72 24 118l433 -29q-16 -202 -83 -454q-78 -290 -187 -453q-64 -97 -246 -214q-81 -52 -130 -73q-108 -46 -254 -46
q-240 0 -368 112q-69 61 -69 242q0 26 1 53q11 196 76 439q44 166 95 286l-135 29l41 176zM590 1464l497 203l124 -244l-560 -85z" />
    <glyph glyph-name="Ucircumflex" unicode="&#xdb;" horiz-adv-x="1274" 
d="M768 1293q-22 -64 -44 -148q-75 -280 -108 -558q-7 -68 -7 -109q0 -31 4 -46q20 -80 70 -80q61 0 132 96q55 76 103 252q27 104 61 281l31 166q14 72 24 118l433 -29q-16 -202 -83 -454q-78 -290 -187 -453q-64 -97 -246 -214q-81 -52 -130 -73q-108 -46 -254 -46
q-240 0 -368 112q-69 61 -69 242q0 26 1 53q11 196 76 439q44 166 95 286l-135 29l41 176zM958 1645l439 -136l-30 -193l-461 135l-502 -118l86 193z" />
    <glyph glyph-name="Udieresis" unicode="&#xdc;" horiz-adv-x="1274" 
d="M768 1293q-22 -64 -44 -148q-75 -280 -108 -558q-7 -68 -7 -109q0 -31 4 -46q20 -80 70 -80q61 0 132 96q55 76 103 252q27 104 61 281l31 166q14 72 24 118l433 -29q-16 -202 -83 -454q-78 -290 -187 -453q-64 -97 -246 -214q-81 -52 -130 -73q-108 -46 -254 -46
q-240 0 -368 112q-69 61 -69 242q0 26 1 53q11 196 76 439q44 166 95 286l-135 29l41 176zM485 1509q20 73 64 121q49 55 117 55h2q78 -2 132 -35q53 -32 53 -82q0 -13 -4 -28q-5 -18 -17 -37q-97 -159 -234 -159q-87 8 -112 81q-7 19 -7 40t6 44zM1042 1526q47 176 180 176
h3q122 -2 168 -73q15 -21 15 -46q0 -13 -4 -26q-4 -17 -17 -37q-93 -159 -225 -159h-8q-65 2 -97 51q-21 31 -21 69q0 21 6 45z" />
    <glyph glyph-name="Yacute" unicode="&#xdd;" horiz-adv-x="1415" 
d="M335 1072l-166 11l39 176l497 -28l198 -528l326 477l397 -18l-1001 -1372l-409 -28l402 584zM591 1464l497 203l124 -244l-560 -85z" />
    <glyph glyph-name="Thorn" unicode="&#xde;" horiz-adv-x="1185" 
d="M671 677l34 -204q230 173 245 229q1 3 1 5q0 8 -10 10q-39 7 -72 7q-110 0 -198 -47zM580 964q3 0 7 1q197 44 339 44q122 0 157 -6q115 -18 174 -83q31 -34 44 -78q2 -9 2 -18q0 -11 -3 -22q-37 -137 -410 -389q-130 -87 -166 -121l54 -207l-252 -131l-181 678
q-5 -3 -19 -13l-47 -35q-27 -21 -34 -25q-7 0 -24 112q-15 105 -36 199q49 12 97 24l-74 256l277 100z" />
    <glyph glyph-name="germandbls" unicode="&#xdf;" horiz-adv-x="1185" 
d="M625 942l-7 -205q225 150 238 200q1 3 1 5q0 8 -11 10q-73 20 -109 20q-53 0 -112 -30zM253 868v15q0 37 8 69q44 165 241 229q71 22 100 27q154 42 279 42q273 0 326 -173q2 -8 2 -16q0 -11 -3 -23q-25 -93 -236 -261q25 -3 71 -29q75 -44 121 -141q37 -77 37 -147
q0 -34 -8 -65q-56 -209 -442 -330l-59 280q131 57 149 126q1 5 1 11q0 26 -30 64q-36 44 -66 49q-76 -51 -134 -68l16 -623l-345 57z" />
    <glyph glyph-name="agrave" unicode="&#xe0;" horiz-adv-x="1025" 
d="M734 678q-98 -10 -186 -70q-82 -56 -99 -120q-4 -14 -4 -27q0 -45 47 -76q55 -35 119 -35q13 0 36 3l39 148q-50 0 -50 43q0 13 5 30q18 68 93 104zM772 800l383 130l-98 -387q-2 -36 -14 -82q-11 -40 -19 -59l-105 -425l-377 -16l11 42q-101 -31 -194 -31
q-145 0 -224 66q-89 74 -89 200q0 56 18 122q45 167 188 269q248 178 469 178q31 0 47 -2zM1021 1043l-129 -125l-514 86l255 243z" />
    <glyph glyph-name="aacute" unicode="&#xe1;" horiz-adv-x="1025" 
d="M734 678q-98 -10 -186 -70q-82 -56 -99 -120q-4 -14 -4 -27q0 -45 47 -76q55 -35 119 -35q13 0 36 3l39 148q-50 0 -50 43q0 13 5 30q18 68 93 104zM772 800l383 130l-98 -387q-2 -36 -14 -82q-11 -40 -19 -59l-105 -425l-377 -16l11 42q-101 -31 -194 -31
q-145 0 -224 66q-89 74 -89 200q0 56 18 122q45 167 188 269q248 178 469 178q31 0 47 -2zM388 1043l498 204l125 -243l-561 -86z" />
    <glyph glyph-name="acircumflex" unicode="&#xe2;" horiz-adv-x="1032" 
d="M734 678q-98 -10 -186 -70q-82 -56 -99 -120q-4 -14 -4 -27q0 -45 47 -76q55 -35 119 -35q13 0 36 3l39 148q-50 0 -50 43q0 13 5 30q18 68 93 104zM772 800l383 130l-98 -387q-2 -36 -14 -82q-11 -40 -19 -59l-105 -425l-377 -16l11 42q-101 -31 -194 -31
q-145 0 -224 66q-89 74 -89 200q0 56 18 122q45 167 188 269q248 178 469 178q31 0 47 -2zM789 1316l439 -136l-32 -193l-459 136l-502 -119l86 193z" />
    <glyph glyph-name="atilde" unicode="&#xe3;" horiz-adv-x="1025" 
d="M734 678q-98 -10 -186 -70q-82 -56 -99 -120q-4 -14 -4 -27q0 -45 47 -76q55 -35 119 -35q13 0 36 3l39 148q-50 0 -50 43q0 13 5 30q18 68 93 104zM772 800l383 130l-98 -387q-2 -36 -14 -82q-11 -40 -19 -59l-105 -425l-377 -16l11 42q-101 -31 -194 -31
q-145 0 -224 66q-89 74 -89 200q0 56 18 122q45 167 188 269q248 178 469 178q31 0 47 -2zM270 1055l62 159q161 72 285 72q67 0 131.5 -51t140.5 -51q139 0 254 68q52 30 59 58l-25 -244q-244 -62 -377 -62q-74 0 -89 23q-47 64 -213 64q-121 0 -228 -36z" />
    <glyph glyph-name="adieresis" unicode="&#xe4;" horiz-adv-x="1025" 
d="M734 678q-98 -10 -186 -70q-82 -56 -99 -120q-4 -14 -4 -27q0 -45 47 -76q55 -35 119 -35q13 0 36 3l39 148q-50 0 -50 43q0 13 5 30q18 68 93 104zM772 800l383 130l-98 -387q-2 -36 -14 -82q-11 -40 -19 -59l-105 -425l-377 -16l11 42q-101 -31 -194 -31
q-145 0 -224 66q-89 74 -89 200q0 56 18 122q45 167 188 269q248 178 469 178q31 0 47 -2zM276 1134q19 73 63 121q50 55 119 55h2q75 -2 130 -35q53 -33 53 -82q0 -14 -4 -28q-4 -17 -17 -37q-95 -158 -232 -158q-67 5 -99 51q-21 30 -21 68q0 21 6 45zM832 1151
q20 74 64 122q50 54 116 54h5q74 -1 129 -35q53 -32 53 -82q0 -13 -4 -27q-5 -18 -16 -37q-97 -159 -235 -159q-88 7 -112 81q-6 18 -6 39t6 44z" />
    <glyph glyph-name="aring" unicode="&#xe5;" horiz-adv-x="1025" 
d="M734 678q-98 -10 -186 -70q-82 -56 -99 -120q-4 -14 -4 -27q0 -45 47 -76q55 -35 119 -35q13 0 36 3l39 148q-50 0 -50 43q0 13 5 30q18 68 93 104zM772 800l383 130l-98 -387q-2 -36 -14 -82q-11 -40 -19 -59l-105 -425l-377 -16l11 42q-101 -31 -194 -31
q-145 0 -224 66q-89 74 -89 200q0 56 18 122q45 167 188 269q248 178 469 178q31 0 47 -2zM587 1151q20 74 64 122q50 54 115 54h5q76 -1 130 -35q53 -32 53 -82q0 -13 -4 -27q-5 -18 -16 -37q-97 -159 -234 -159q-89 7 -113 81q-6 18 -6 39t6 44z" />
    <glyph glyph-name="ae" unicode="&#xe6;" horiz-adv-x="1637" 
d="M734 678q-98 -10 -186 -70q-82 -56 -99 -120q-4 -14 -4 -27q0 -45 47 -76q55 -35 119 -35q13 0 36 3l39 148q-50 0 -50 43q0 13 5 30q18 68 93 104zM1253 544q-36 17 -79 17q-99 0 -159 -51q-67 -57 -84 -122q-6 -22 -6 -59q0 -21 2 -48zM1111 743q142 34 237 34
q106 0 212 -50q54 -25 115 -64l-578 -453q121 0 237 81q55 38 106 92l145 -202q-83 -121 -394 -181q-139 -27 -261 -27q-222 0 -283 78l-130 -51q-114 -17 -189 -17q-231 0 -272 193q-7 36 -7 73q0 54 15 111q45 167 188 269q248 178 469 178q31 0 47 -2l4 -5l383 130z" />
    <glyph glyph-name="ccedilla" unicode="&#xe7;" horiz-adv-x="1247" 
d="M712 38q110 -79 110 -154q0 -13 -3 -26q-31 -114 -281 -187q-86 -26 -124 -34l-246 176q261 17 287 114q2 7 2 15q0 35 -42 79q-273 28 -334 241q-16 56 -16 128q0 76 18 171q4 22 15 61q97 365 433 490q131 49 291 50h11q177 0 337 -64q207 -81 211 -225l-426 -202
q-17 77 -230 77q-58 0 -123 -66q-60 -60 -76 -118l-1 -3q-5 -23 -5 -43q0 -42 22 -71q33 -43 105 -44h9q167 0 296 149q4 -13 164 -145l83 -68q-180 -236 -487 -301z" />
    <glyph glyph-name="egrave" unicode="&#xe8;" horiz-adv-x="1066" 
d="M869 383l145 -202q-82 -120 -378 -183q-130 -28 -255 -28q-234 0 -301 98q-36 52 -36 124q0 42 13 92q23 85 85 183q72 112 149 162q219 143 474 143q221 0 338 -109l-577 -453q120 0 237 81q55 38 106 92zM682 544q-37 17 -79 17q-100 0 -160 -51q-67 -57 -84 -122
q-6 -21 -6 -54q0 -24 3 -53zM1021 1043l-129 -125l-514 86l255 243z" />
    <glyph glyph-name="eacute" unicode="&#xe9;" horiz-adv-x="1066" 
d="M869 383l145 -202q-82 -120 -378 -183q-130 -28 -255 -28q-234 0 -301 98q-36 52 -36 124q0 42 13 92q23 85 85 183q72 112 149 162q219 143 474 143q221 0 338 -109l-577 -453q120 0 237 81q55 38 106 92zM682 544q-37 17 -79 17q-100 0 -160 -51q-67 -57 -84 -122
q-6 -21 -6 -54q0 -24 3 -53zM388 1043l498 204l125 -243l-561 -86z" />
    <glyph glyph-name="ecircumflex" unicode="&#xea;" horiz-adv-x="1066" 
d="M869 383l145 -202q-82 -120 -378 -183q-130 -28 -255 -28q-234 0 -301 98q-36 52 -36 124q0 42 13 92q23 85 85 183q72 112 149 162q219 143 474 143q221 0 338 -109l-577 -453q120 0 237 81q55 38 106 92zM682 544q-37 17 -79 17q-100 0 -160 -51q-67 -57 -84 -122
q-6 -21 -6 -54q0 -24 3 -53zM789 1316l439 -136l-32 -193l-459 136l-502 -119l86 193z" />
    <glyph glyph-name="edieresis" unicode="&#xeb;" horiz-adv-x="1067" 
d="M870 383l145 -202q-82 -120 -378 -183q-130 -28 -255 -28q-234 0 -301 98q-36 52 -36 124q0 42 13 92q23 85 85 183q72 112 149 162q219 143 474 143q221 0 338 -109l-577 -453q120 0 237 81q55 38 106 92zM683 544q-37 17 -79 17q-100 0 -160 -51q-67 -57 -84 -122
q-6 -21 -6 -54q0 -24 3 -53zM277 1134q19 73 63 121q50 55 119 55h2q75 -2 130 -35q53 -33 53 -82q0 -14 -4 -28q-4 -17 -17 -37q-95 -158 -232 -158q-67 5 -99 51q-21 30 -21 68q0 21 6 45zM833 1151q20 74 64 122q50 54 116 54h5q74 -1 129 -35q53 -32 53 -82
q0 -13 -4 -27q-5 -18 -16 -37q-97 -159 -235 -159q-88 7 -112 81q-6 18 -6 39t6 44z" />
    <glyph glyph-name="igrave" unicode="&#xec;" horiz-adv-x="842" 
d="M414 -130l-379 -18l179 743l-129 -23l86 171l462 147zM1021 1043l-129 -125l-514 86l255 243z" />
    <glyph glyph-name="iacute" unicode="&#xed;" horiz-adv-x="842" 
d="M414 -130l-379 -18l179 743l-129 -23l86 171l462 147zM388 1043l498 204l125 -243l-561 -86z" />
    <glyph glyph-name="icircumflex" unicode="&#xee;" horiz-adv-x="781" 
d="M415 -130l-379 -18l179 743l-129 -23l86 171l462 147zM532 1299l441 -137l-32 -192l-461 135l-501 -118l86 193z" />
    <glyph glyph-name="idieresis" unicode="&#xef;" horiz-adv-x="727" 
d="M414 -130l-379 -18l179 743l-129 -23l86 171l462 147zM26 1140q48 176 181 176h3q121 -2 168 -73q14 -22 14 -47q0 -12 -3 -25q-5 -17 -17 -37q-95 -158 -232 -158q-67 5 -99 51q-21 30 -21 69q0 21 6 44zM582 1157q20 74 63 121q50 55 118 55h2q77 -2 131 -35
q53 -33 53 -81q0 -14 -4 -29q-5 -21 -18 -37q-94 -158 -232 -158q-89 7 -113 81q-6 18 -6 39t6 44z" />
    <glyph glyph-name="eth" unicode="&#xf0;" horiz-adv-x="1025" 
d="M734 678q-98 -10 -186 -70q-82 -56 -99 -120q-4 -14 -4 -27q0 -45 47 -76q55 -35 119 -35q13 0 36 3l39 148q-50 0 -50 43q0 13 5 30q18 68 93 104zM577 1378q163 68 314 68q115 0 211 -40q67 -28 92 -61q30 -37 32 -109l-169 -693q-2 -36 -14 -82q-11 -40 -19 -59
l-105 -425l-351 -16l11 42q-100 -31 -200 -31q-165 0 -244 66q-89 74 -89 200q0 56 18 122q45 167 188 269q171 123 356 171q91 24 166 24q25 0 39 -1l78 254q0 134 -84 134q-94 0 -198 -134z" />
    <glyph glyph-name="ntilde" unicode="&#xf1;" horiz-adv-x="1199" 
d="M575 800q203 52 299 52q81 0 136 -29q70 -40 128 -121q61 -86 63 -158v-35q0 -127 -25 -222q-24 -90 -115 -287l-352 -17q12 34 29 99q48 180 48 323q0 75 -13 139q-16 72 -50 72q-43 0 -122 -100q-39 -49 -70 -136q-11 -32 -24 -81q-28 -106 -57 -271l-419 -39
q15 144 30 233q9 48 26 111q7 26 24 74l93 404l335 34zM270 1055l62 159q161 72 285 72q67 0 131.5 -51t140.5 -51q139 0 254 68q52 30 59 58l-25 -244q-244 -62 -377 -62q-74 0 -89 23q-47 64 -213 64q-121 0 -228 -36z" />
    <glyph glyph-name="ograve" unicode="&#xf2;" horiz-adv-x="1020" 
d="M1031 678q28 -50 28 -114q0 -47 -15 -101q-26 -98 -84 -182q-26 -38 -56 -66q-264 -243 -545 -243q-145 0 -224 66q-89 74 -89 200q0 56 18 122q45 167 188 269q247 178 468 178q63 0 120 -14q146 -35 191 -115zM874 633q-24 -45 -77 -86q-60 -46 -111 -46t-51 41
q0 11 4 26q21 78 135 113q-90 0 -188 -50q-114 -58 -137 -143q-4 -13 -4 -25q0 -42 43 -75q50 -38 122 -38q120 0 206 117q37 52 51 103q7 29 7 52v11zM1021 1043l-129 -125l-514 86l255 243z" />
    <glyph glyph-name="oacute" unicode="&#xf3;" horiz-adv-x="1020" 
d="M1031 678q28 -50 28 -114q0 -47 -15 -101q-26 -98 -84 -182q-26 -38 -56 -66q-264 -243 -545 -243q-145 0 -224 66q-89 74 -89 200q0 56 18 122q45 167 188 269q247 178 468 178q63 0 120 -14q146 -35 191 -115zM874 633q-24 -45 -77 -86q-60 -46 -111 -46t-51 41
q0 11 4 26q21 78 135 113q-90 0 -188 -50q-114 -58 -137 -143q-4 -13 -4 -25q0 -42 43 -75q50 -38 122 -38q120 0 206 117q37 52 51 103q7 29 7 52v11zM388 1043l498 204l125 -243l-561 -86z" />
    <glyph glyph-name="ocircumflex" unicode="&#xf4;" horiz-adv-x="1032" 
d="M1031 678q28 -50 28 -114q0 -47 -15 -101q-26 -98 -84 -182q-26 -38 -56 -66q-264 -243 -545 -243q-145 0 -224 66q-89 74 -89 200q0 56 18 122q45 167 188 269q247 178 468 178q63 0 120 -14q146 -35 191 -115zM874 633q-24 -45 -77 -86q-60 -46 -111 -46t-51 41
q0 11 4 26q21 78 135 113q-90 0 -188 -50q-114 -58 -137 -143q-4 -13 -4 -25q0 -42 43 -75q50 -38 122 -38q120 0 206 117q37 52 51 103q7 29 7 52v11zM789 1316l439 -136l-32 -193l-459 136l-502 -119l86 193z" />
    <glyph glyph-name="otilde" unicode="&#xf5;" horiz-adv-x="1020" 
d="M1031 678q28 -50 28 -114q0 -47 -15 -101q-26 -98 -84 -182q-26 -38 -56 -66q-264 -243 -545 -243q-145 0 -224 66q-89 74 -89 200q0 56 18 122q45 167 188 269q247 178 468 178q63 0 120 -14q146 -35 191 -115zM874 633q-24 -45 -77 -86q-60 -46 -111 -46t-51 41
q0 11 4 26q21 78 135 113q-90 0 -188 -50q-114 -58 -137 -143q-4 -13 -4 -25q0 -42 43 -75q50 -38 122 -38q120 0 206 117q37 52 51 103q7 29 7 52v11zM270 1055l62 159q161 72 285 72q67 0 131.5 -51t140.5 -51q139 0 254 68q52 30 59 58l-25 -244q-244 -62 -377 -62
q-74 0 -89 23q-47 64 -213 64q-121 0 -228 -36z" />
    <glyph glyph-name="odieresis" unicode="&#xf6;" horiz-adv-x="1020" 
d="M1031 678q28 -50 28 -114q0 -47 -15 -101q-26 -98 -84 -182q-26 -38 -56 -66q-264 -243 -545 -243q-145 0 -224 66q-89 74 -89 200q0 56 18 122q45 167 188 269q247 178 468 178q63 0 120 -14q146 -35 191 -115zM874 633q-24 -45 -77 -86q-60 -46 -111 -46t-51 41
q0 11 4 26q21 78 135 113q-90 0 -188 -50q-114 -58 -137 -143q-4 -13 -4 -25q0 -42 43 -75q50 -38 122 -38q120 0 206 117q37 52 51 103q7 29 7 52v11zM276 1134q19 73 63 121q50 55 119 55h2q75 -2 130 -35q53 -33 53 -82q0 -14 -4 -28q-4 -17 -17 -37q-95 -158 -232 -158
q-67 5 -99 51q-21 30 -21 68q0 21 6 45zM832 1151q20 74 64 122q50 54 116 54h5q74 -1 129 -35q53 -32 53 -82q0 -13 -4 -27q-5 -18 -16 -37q-97 -159 -235 -159q-88 7 -112 81q-6 18 -6 39t6 44z" />
    <glyph glyph-name="divide" unicode="&#xf7;" horiz-adv-x="911" 
d="M211 737l814 63l-89 -228l-795 -22zM496 499q106 0 156 -55q29 -30 29 -62q0 -10 -3 -21q-11 -39 -56 -91q-38 -45 -73 -59q-30 -13 -87 -13q-156 0 -156 113q0 10 1 21q18 68 68 114q51 48 121 53zM642 1123h13q92 0 144 -56q29 -31 29 -63q0 -9 -3 -19
q-18 -67 -96 -129q-31 -25 -53 -28q-45 -5 -66 -5q-156 0 -156 110q0 11 1 22q43 162 187 168z" />
    <glyph glyph-name="oslash" unicode="&#xf8;" horiz-adv-x="1081" 
d="M875 633q-24 -45 -77 -86q-60 -46 -111 -46t-51 41q0 11 4 26q21 78 135 113q-90 0 -188 -50q-114 -58 -137 -143q-4 -13 -4 -25q0 -42 43 -75q50 -38 122 -38q120 0 206 117q37 52 51 103q7 29 7 52v11zM56 176q-8 36 -8 75q0 52 15 109q45 166 190 269q247 178 468 178
q106 0 198 -40l109 95l51 -46q95 -88 95 -96l-135 -102q10 -37 10 -77q0 -48 -14 -100q-37 -139 -130 -226q-262 -243 -545 -243q-94 0 -168 32l-153 -95l-158 130z" />
    <glyph glyph-name="ugrave" unicode="&#xf9;" horiz-adv-x="1199" 
d="M265 862l398 -39q-60 -165 -88 -271q-28 -103 -28 -167q0 -29 6 -50q25 -100 68 -100q34 0 88 71q139 185 194 393q17 61 24 95l342 -17l-13 -174q-2 -26 -15 -73q-20 -73 -104 -224q-40 -72 -133 -154q-95 -86 -180 -121q-120 -51 -264 -51q-207 0 -342 93
q-112 77 -112 238q0 12 1 25q5 82 32 182q39 145 126 344zM1151 1043l-129 -125l-515 86l256 243z" />
    <glyph glyph-name="uacute" unicode="&#xfa;" horiz-adv-x="1199" 
d="M265 862l398 -39q-60 -165 -88 -271q-28 -103 -28 -167q0 -29 6 -50q25 -100 68 -100q34 0 88 71q139 185 194 393q17 61 24 95l342 -17l-13 -174q-2 -26 -15 -73q-20 -73 -104 -224q-40 -72 -133 -154q-95 -86 -180 -121q-120 -51 -264 -51q-207 0 -342 93
q-112 77 -112 238q0 12 1 25q5 82 32 182q39 145 126 344zM548 1055l497 204l125 -244l-560 -85z" />
    <glyph glyph-name="ucircumflex" unicode="&#xfb;" horiz-adv-x="1199" 
d="M265 862l398 -39q-60 -165 -88 -271q-28 -103 -28 -167q0 -29 6 -50q25 -100 68 -100q34 0 88 71q139 185 194 393q17 61 24 95l342 -17l-13 -174q-2 -26 -15 -73q-20 -73 -104 -224q-40 -72 -133 -154q-95 -86 -180 -121q-120 -51 -264 -51q-207 0 -342 93
q-112 77 -112 238q0 12 1 25q5 82 32 182q39 145 126 344zM861 1310l441 -136l-32 -193l-461 136l-501 -119l86 193z" />
    <glyph glyph-name="udieresis" unicode="&#xfc;" horiz-adv-x="1199" 
d="M265 862l398 -39q-60 -165 -88 -271q-28 -103 -28 -167q0 -29 6 -50q25 -100 68 -100q34 0 88 71q139 185 194 393q17 61 24 95l342 -17l-13 -174q-2 -26 -15 -73q-20 -73 -104 -224q-40 -72 -133 -154q-95 -86 -180 -121q-120 -51 -264 -51q-207 0 -342 93
q-112 77 -112 238q0 12 1 25q5 82 32 182q39 145 126 344zM366 1134q19 73 62 121q51 55 119 55h2q74 -2 130 -35q52 -33 52 -82q0 -13 -4 -28q-4 -17 -17 -37q-95 -158 -233 -158q-88 7 -112 81q-6 17 -6 37q0 22 7 46zM920 1151q20 74 64 122q50 54 115 54h5
q75 -1 130 -35q53 -32 53 -82q0 -13 -4 -27q-5 -17 -17 -37q-96 -159 -233 -159q-87 7 -112 80q-7 19 -7 41q0 20 6 43z" />
    <glyph glyph-name="yacute" unicode="&#xfd;" horiz-adv-x="1271" 
d="M113 675l368 130l196 -515l331 476l336 -119l-953 -1248l-301 102l307 431zM494 1055l496 204l126 -244l-561 -85z" />
    <glyph glyph-name="thorn" unicode="&#xfe;" horiz-adv-x="1050" 
d="M361 -9l-109 -404l-378 -17l393 1418l-128 -23l86 170l462 147l-124 -488q102 32 189 32q123 0 237 -58q106 -54 106 -180q0 -48 -16 -108q-27 -98 -85 -181q-26 -38 -56 -65q-181 -168 -374 -221q-87 -24 -170 -24q-15 2 -33 2zM500 543l-18 -73q3 -41 45 -67
q58 -35 118 -35q119 0 205 117q38 51 52 103q7 29 7 57v7q-26 -47 -78 -88q-59 -46 -110 -46q-52 0 -52 43q0 11 4 26q21 77 136 111q-129 0 -236 -79q-48 -35 -73 -76z" />
    <glyph glyph-name="ydieresis" unicode="&#xff;" horiz-adv-x="1271" 
d="M113 675l368 130l196 -515l331 476l336 -119l-953 -1248l-301 102l307 431zM385 1134q19 73 63 121q50 55 118 55h2q77 -2 132 -34q52 -32 52 -82q0 -14 -4 -29q-4 -17 -17 -37q-95 -158 -233 -158q-87 7 -113 80q-6 18 -6 39t6 45zM941 1151q20 74 63 122q51 54 116 54
h5q75 -1 130 -35q53 -32 53 -82q0 -13 -4 -27q-5 -18 -17 -37q-96 -159 -234 -159q-88 7 -112 81q-6 18 -6 39t6 44z" />
    <glyph glyph-name="dotlessi" unicode="&#x131;" horiz-adv-x="549" 
d="M414 -130l-379 -18l179 743l-129 -23l86 171l462 147z" />
    <glyph glyph-name="circumflex" unicode="&#x2c6;" horiz-adv-x="1032" 
d="M789 1316l439 -136l-32 -193l-459 136l-502 -119l86 193z" />
    <glyph glyph-name="caron" unicode="&#x2c7;" horiz-adv-x="1032" 
d="M726 987l-439 136l32 193l459 -136l502 119l-86 -193z" />
    <glyph glyph-name="uni02C9" unicode="&#x2c9;" horiz-adv-x="870" 
d="M574 1195l34 125h516l-34 -125h-516z" />
    <glyph glyph-name="breve" unicode="&#x2d8;" horiz-adv-x="903" 
d="M580 1349h51v-6q0 -68 47 -101q49 -34 158 -34t175 33.5t102 107.5h51q-55 -133 -147.5 -201.5t-215.5 -68.5q-122 0 -178 69q-46 55 -46 151q0 24 3 50z" />
    <glyph glyph-name="dotaccent" unicode="&#x2d9;" horiz-adv-x="723" 
d="M767 1289l89 72q7 6 15 9t15 3q6 0 11.5 -3t10.5 -9l50 -76q4 -4 5 -10v-3q0 -5 -2 -11q-4 -9 -7.5 -15t-10.5 -12l-92 -76q-15 -11 -19.5 -13.5t-7.5 -2.5q-10 0 -16 2.5t-8 8.5l-52 87q-3 4 -3 10q-1 1 -1 2q0 5 2 11t7 12.5t14 13.5z" />
    <glyph glyph-name="ring" unicode="&#x2da;" horiz-adv-x="790" 
d="M748 1257q-4 -14 -4 -27q0 -25 14 -44q21 -29 63 -29t79 29t48 71q4 13 4 26q0 24 -15 44q-22 29 -63 29t-78 -29.5t-48 -69.5zM672 1257q20 75 84.5 126t138.5 51q76 0 114 -51q25 -34 25 -78q0 -22 -7 -48q-20 -75 -85.5 -126.5t-141.5 -51.5q-74 0 -111 52
q-24 33 -24 76q0 24 7 50z" />
    <glyph glyph-name="ogonek" unicode="&#x2db;" horiz-adv-x="837" 
d="M640 0q-88 -62 -142.5 -119.5t-69.5 -112.5q-5 -19 -5 -35q0 -23 12 -40q19 -28 65 -28q40 0 74 15.5t62 48.5l24 -16q-53 -63 -116.5 -97t-128.5 -34q-70 0 -104 36q-25 24 -25 58q0 15 5 32q20 76 102 156.5t198 135.5h49z" />
    <glyph glyph-name="tilde" unicode="&#x2dc;" horiz-adv-x="991" 
d="M270 1055l62 159q161 72 285 72q67 0 131.5 -51t140.5 -51q139 0 254 68q52 30 59 58l-25 -244q-244 -62 -377 -62q-74 0 -89 23q-47 64 -213 64q-121 0 -228 -36z" />
    <glyph glyph-name="hungarumlaut" unicode="&#x2dd;" horiz-adv-x="906" 
d="M506 1079l217 273q36 44 62.5 63t51.5 19q28 0 43 -20q10 -13 10 -29q0 -9 -3 -18q-4 -16 -19.5 -35t-41.5 -41l-262 -212h-58zM791 1079l217 273q36 44 62.5 63t51.5 19q28 0 43 -20q10 -13 10 -29q0 -9 -3 -18q-4 -16 -19.5 -35t-41.5 -41l-262 -212h-58z" />
    <glyph glyph-name="endash" unicode="&#x2013;" horiz-adv-x="1217" 
d="M211 737l1122 68l-88 -226l-1104 -29z" />
    <glyph glyph-name="emdash" unicode="&#x2014;" horiz-adv-x="911" 
d="M211 737l814 63l-89 -228l-795 -22z" />
    <glyph glyph-name="quoteleft" unicode="&#x2018;" horiz-adv-x="461" 
d="M535 775l-172 21l-15 442l334 -41z" />
    <glyph glyph-name="quoteright" unicode="&#x2019;" horiz-adv-x="461" 
d="M535 775l-172 21l-15 442l334 -41z" />
    <glyph glyph-name="quotesinglbase" unicode="&#x201a;" horiz-adv-x="429" 
d="M290 -18l-172 19l-15 443l334 -41z" />
    <glyph glyph-name="quotedblleft" unicode="&#x201c;" horiz-adv-x="887" 
d="M451 775l-172 21l-15 442l334 -41zM961 775l-172 21l-15 442l334 -41z" />
    <glyph glyph-name="quotedblright" unicode="&#x201d;" horiz-adv-x="887" 
d="M451 775l-172 21l-15 442l334 -41zM961 775l-172 21l-15 442l334 -41z" />
    <glyph glyph-name="quotedblbase" unicode="&#x201e;" horiz-adv-x="882" 
d="M230 -30l-172 20l-16 443l335 -42zM740 -30l-172 20l-15 443l334 -42z" />
    <glyph glyph-name="dagger" unicode="&#x2020;" horiz-adv-x="787" 
d="M259 918l188 12l188 198l79 -192l209 -6l-49 -232l-219 -6l-238 -357l-21 357h-198z" />
    <glyph glyph-name="daggerdbl" unicode="&#x2021;" horiz-adv-x="786" 
d="M611 556l215 -6l-75 -232l-212 -6l-181 -193l-84 199l-180 11l61 227h197l43 136h-198l61 226l188 12l188 198l79 -192l209 -6l-49 -232l-219 -6z" />
    <glyph glyph-name="bullet" unicode="&#x2022;" horiz-adv-x="456" 
d="M365 851q106 0 157 -56q28 -31 28 -62q0 -10 -3 -20q-18 -66 -95 -129q-31 -26 -53 -28q-46 -6 -68 -6q-155 0 -155 111q0 11 1 22q18 69 68 114q52 49 120 54z" />
    <glyph glyph-name="ellipsis" unicode="&#x2026;" horiz-adv-x="1266" 
d="M215 290q106 0 156 -57q29 -31 29 -62q0 -10 -3 -19q-18 -67 -95 -129q-32 -26 -54 -29q-45 -5 -67 -5q-155 0 -155 111q0 11 1 22q18 68 67 114q52 48 121 54zM624 295q106 0 157 -55q29 -30 29 -63q0 -10 -3 -20q-18 -66 -94 -129q-33 -25 -55 -28q-46 -6 -67 -6
q-156 0 -156 114q0 9 1 19q19 69 68 115q52 48 120 53zM1028 301q106 0 157 -56q28 -31 28 -63q0 -9 -3 -19q-10 -37 -56 -91q-39 -46 -74 -60q-28 -12 -86 -12q-111 0 -143 62q-12 24 -12 53q0 9 1 19q18 68 67 113q52 48 121 54z" />
    <glyph glyph-name="guilsinglleft" unicode="&#x2039;" horiz-adv-x="1106" 
d="M205 743l1088 329l-98 -238l-457 -108l364 -113l-106 -245z" />
    <glyph glyph-name="guilsinglright" unicode="&#x203a;" horiz-adv-x="1030" 
d="M1129 743l-992 -375l25 245l425 113l-400 108l29 238z" />
    <glyph glyph-name="fraction" unicode="&#x2044;" horiz-adv-x="1420" 
d="M1645 1214l-1426 -1441l-432 -11l1399 1435z" />
    <glyph glyph-name="fraction" unicode="&#x2215;" horiz-adv-x="1420" 
d="M1645 1214l-1426 -1441l-432 -11l1399 1435z" />
    <glyph glyph-name="franc" unicode="&#x20a3;" horiz-adv-x="1054" 
d="M454 62l-49 -255q-135 -15 -234 -15q-94 0 -134 15l50 245l-80 -2l71 187l48 4l124 610l-122 -17l109 328l1041 126l-60 -301l-593 -80l-45 -215l444 56l-45 -249l-454 -67l-31 -163l397 31l-89 -228z" />
    <glyph glyph-name="lira" unicode="&#x20a4;" horiz-adv-x="1392" 
d="M730 73l512 -16l-87 -300l-1199 50q4 34 49 200q307 25 328 101l109 402h-196l38 318l251 -23q9 52 15 75q75 281 472 373q128 30 248 30q213 0 285 -95q26 -34 27 -105l-335 -159q-21 112 -103 112q-53 0 -110 -71q-14 -18 -47 -104l-29 -72h220l-71 -267l-242 -6
q-26 -90 -71 -222l-30 -87q-7 -22 -18 -62q-6 -23 -16 -72z" />
    <glyph glyph-name="peseta" unicode="&#x20a7;" horiz-adv-x="1165" 
d="M713 907l13 -204q251 173 266 229q1 3 1 5q0 8 -10 10q-39 7 -72 7q-110 0 -198 -47zM455 415l-68 447q-6 -3 -20 -13l-46 -35q-28 -21 -35 -25q-7 0 -24 112q-14 105 -35 199q221 56 401 95q198 44 340 44q122 0 156 -6q116 -18 174 -83q32 -34 44 -78q3 -9 3 -19
t-3 -21q-37 -137 -411 -389q-129 -87 -185 -121l6 -84l282 22l-89 -228l-177 -5l10 -142l-252 -131l-41 265l-335 -9l70 187z" />
    <glyph glyph-name="Euro" unicode="&#x20ac;" horiz-adv-x="1397" 
d="M251 632q103 340 425 460q130 49 291 50h11q177 0 337 -64q206 -81 211 -225l-427 -202q-16 77 -229 77q-54 0 -116 -58l233 18l-87 -227l-228 -7q6 -14 15 -27q33 -43 104 -44h9q168 0 297 149q4 -13 164 -145l82 -68q-179 -233 -463 -295q-122 -27 -233 -27
q-333 0 -413 219q-24 65 -24 156q0 33 3 69l-109 -3l71 188z" />
    <glyph glyph-name="uni2116" unicode="&#x2116;" horiz-adv-x="1226" 
d="M1244 1117q-14 -31 -42 -57q-35 -32 -68 -32t-33 28q0 9 3 21q12 48 83 77q-79 0 -123 -54q-21 -24 -28 -50q-3 -12 -3 -22q0 -24 17 -37q27 -23 61 -23q47 0 84 36q34 32 45 73q4 18 4 34v6zM664 796l-72 -282l-157 -9l-57 369l-78 -304l-198 -2l154 663l-68 14l20 88
l248 -14l48 -230l32 210l256 -9l-66 -253q31 37 74 70q131 100 250 139q63 21 122 21q99 0 178 -60q62 -47 62 -116q0 -25 -8 -52q-19 -73 -86 -147q-31 -35 -66 -62q-200 -163 -377 -163q-91 0 -152 40q-45 29 -59 89z" />
    <glyph glyph-name="trademark" unicode="&#x2122;" horiz-adv-x="1194" 
d="M784 1090l-191 -12l-102 -465h-25q-77 0 -130 5q-31 4 -45 9l92 445l-260 -3l41 137l673 36l-22 -106l194 11l36 -74l74 102l134 3l-6 -607l-237 20l12 207l-69 -77l-38 97l-68 -176l-239 -14z" />
    <glyph glyph-name="partialdiff" unicode="&#x2202;" 
d="M0 200v1100q0 200 200 200h1100q200 0 200 -200v-1100q0 -200 -200 -200h-1100q-200 0 -200 200zM1475 201v1099q0 175 -175 175h-1100q-174 0 -175 -175v-1100q1 -175 175 -175h1101q174 0 174 176z" />
    <glyph glyph-name="Delta" unicode="&#x2206;" 
d="M0 200v1100q0 200 200 200h1100q200 0 200 -200v-1100q0 -200 -200 -200h-1100q-200 0 -200 200zM1475 201v1099q0 175 -175 175h-1100q-174 0 -175 -175v-1100q1 -175 175 -175h1101q174 0 174 176z" />
    <glyph glyph-name="product" unicode="&#x220f;" 
d="M0 200v1100q0 200 200 200h1100q200 0 200 -200v-1100q0 -200 -200 -200h-1100q-200 0 -200 200zM1475 201v1099q0 175 -175 175h-1100q-174 0 -175 -175v-1100q1 -175 175 -175h1101q174 0 174 176z" />
    <glyph glyph-name="summation" unicode="&#x2211;" 
d="M0 200v1100q0 200 200 200h1100q200 0 200 -200v-1100q0 -200 -200 -200h-1100q-200 0 -200 200zM1475 201v1099q0 175 -175 175h-1100q-174 0 -175 -175v-1100q1 -175 175 -175h1101q174 0 174 176z" />
    <glyph glyph-name="minus" unicode="&#x2212;" horiz-adv-x="1217" 
d="M211 737l1122 68l-88 -226l-1104 -29z" />
    <glyph glyph-name="approxequal" unicode="&#x2248;" 
d="M0 200v1100q0 200 200 200h1100q200 0 200 -200v-1100q0 -200 -200 -200h-1100q-200 0 -200 200zM1475 201v1099q0 175 -175 175h-1100q-174 0 -175 -175v-1100q1 -175 175 -175h1101q174 0 174 176z" />
    <glyph glyph-name="lessequal" unicode="&#x2264;" 
d="M0 200v1100q0 200 200 200h1100q200 0 200 -200v-1100q0 -200 -200 -200h-1100q-200 0 -200 200zM1475 201v1099q0 175 -175 175h-1100q-174 0 -175 -175v-1100q1 -175 175 -175h1101q174 0 174 176z" />
    <glyph glyph-name="greaterequal" unicode="&#x2265;" 
d="M0 200v1100q0 200 200 200h1100q200 0 200 -200v-1100q0 -200 -200 -200h-1100q-200 0 -200 200zM1475 201v1099q0 175 -175 175h-1100q-174 0 -175 -175v-1100q1 -175 175 -175h1101q174 0 174 176z" />
    <glyph glyph-name="uniF001" unicode="&#xf001;" horiz-adv-x="100" 
 />
    <glyph glyph-name="uniF001" unicode="&#xfb01;" horiz-adv-x="100" 
 />
    <glyph glyph-name="uniF002" unicode="&#xf002;" horiz-adv-x="100" 
 />
    <glyph glyph-name="uniF002" unicode="&#xfb02;" horiz-adv-x="100" 
 />
    <glyph glyph-name="OE" unicode="&#x152;" horiz-adv-x="2385" 
d="M1224 859q-29 -62 -85 -114q-69 -64 -135 -64q-69 0 -69 58q0 17 6 39q26 97 169 155q-159 0 -248 -109q-40 -48 -54 -99q-6 -25 -6 -45q0 -47 32 -73q56 -46 123 -46q94 0 169 72q65 63 87 145q11 40 11 75v6zM1081 167q-314 -208 -596 -208q-182 0 -304 80
q-92 61 -120 190q-11 50 -11 100q0 67 19 136q58 217 266 374q263 200 499 278q127 41 246 41q63 0 122 -12l5 16l1041 126l-60 -301l-593 -80l-45 -215l587 79l-46 -249l-596 -90l-65 -341l862 -34l-86 -300l-1199 50z" />
    <glyph glyph-name="oe" unicode="&#x153;" horiz-adv-x="1760" 
d="M875 633q-25 -45 -78 -86q-59 -46 -111 -46q-51 0 -51 41q0 11 4 26q21 78 136 113q-91 0 -189 -50q-114 -58 -137 -143q-4 -13 -4 -25q0 -42 43 -75q50 -38 122 -38q120 0 206 117q38 52 52 103q7 29 7 52v11zM1372 544q-37 17 -79 17q-100 0 -160 -51q-67 -57 -84 -122
q-6 -21 -6 -54q0 -24 3 -53zM753 97q-192 -125 -394 -125q-145 0 -224 66q-89 74 -89 200q0 56 18 122q45 167 188 269q247 178 468 178q63 0 121 -14q146 -35 191 -115q4 -7 7 -14q194 108 416 108q221 0 338 -109l-577 -453q120 0 237 81q55 38 106 92l145 -202
q-82 -120 -378 -183q-130 -28 -255 -28q-234 0 -301 98q-9 14 -17 29z" />
    <glyph glyph-name="perthousand" unicode="&#x2030;" horiz-adv-x="1750" 
d="M519 908h-3q-31 0 -57 -18q-46 -34 -64 -102q-4 -15 -4 -27q0 -33 26 -53q18 -15 49 -15q67 7 99 47q19 24 27 54l1 3q5 20 5 37q0 23 -10 41q-19 32 -69 33zM950 363h-3q-31 0 -57 -18q-46 -34 -64 -102q-4 -15 -4 -27q0 -33 26 -53q18 -15 49 -15q67 7 99 47
q19 24 27 54l1 3q5 20 5 37q0 23 -10 41q-19 32 -69 33zM1373 298h-3q-31 0 -57 -18q-46 -34 -64 -102q-4 -15 -4 -28q0 -32 25 -52q18 -15 49 -15q67 7 100 47q18 24 26 54l1 3q6 21 6 38q0 23 -10 40q-19 32 -69 33zM943 606q51 10 109 11h4q163 0 218 -106q4 2 9 4
q85 36 192 37h4q173 0 223 -119q20 -49 20 -111t-20 -137l-6 -21q-17 -63 -92 -154q-71 -86 -159 -140q-105 -64 -205 -64q-179 0 -231 121q-98 -56 -192 -56q-203 0 -241 157q-8 35 -8 76q0 60 17 132l3 11l-469 -474l-332 -11l640 657q-21 -3 -41 -3q-203 0 -241 157
q-8 35 -8 76q0 60 17 132l3 9q15 56 47 122q74 148 225 213q85 36 192 37h4q173 0 223 -119q20 -49 20 -110q0 -32 -5 -67l323 331l359 17z" />
    </font>
</defs>
</svg>
